<?xml version="1.0" encoding="utf-8"?>
<!-- Generator: Adobe Illustrator 26.0.3, SVG Export Plug-In . SVG Version: 6.00 Build 0)  -->
<svg version="1.1" id="a" xmlns="http://www.w3.org/2000/svg" xmlns:xlink="http://www.w3.org/1999/xlink" x="0px" y="0px"
	 viewBox="0 0 1000 1000" style="enable-background:new 0 0 1000 1000;" xml:space="preserve">
<style type="text/css">
	.st0{fill:#8C82A5;}
	.st1{fill:#5A1372;}
	.st2{fill:#E9DCFF;}
</style>
<rect x="393.4" y="40.6" transform="matrix(0.6227 -0.7825 0.7825 0.6227 -104.9197 599.1483)" class="st0" width="350.7" height="735.5"/>
<path class="st1" d="M985.8,493.3c2.5,7,1.2,14.7-3.4,20.5L763.7,788c-3.6,4.4-8.8,7.2-14.4,7.8c-5.6,0.6-11.2-1-15.6-4.5
	L158.4,333.5c-4.4-3.5-7.2-8.7-7.8-14.3c-0.6-5.6,1-11.2,4.5-15.6L373.9,29.1c7.4-9.3,20.8-10.8,30.1-3.4c0,0,0,0,0,0l575.5,457.9
	C982.4,486.2,984.6,489.6,985.8,493.3z M743.6,744.8l192-241.2l-542-431.3L201.8,313.5L743.6,744.8z"/>
<circle class="st2" cx="570" cy="409.6" r="125.6"/>
<path class="st1" d="M701.2,362.3c26.1,72.4-11.5,152.3-83.9,178.4S465,529.2,438.9,456.8c-26.1-72.4,11.5-152.3,83.9-178.4
	c45.5-16.4,96.2-8,134.1,22.1C677.1,316.6,692.5,338,701.2,362.3z M465,447.5c21.1,58,85.2,87.9,143.2,66.8
	c48.4-17.6,78.5-66.1,72.8-117.3c-3.2-29.4-18.2-56.3-41.4-74.7c-48.2-38.5-118.4-30.7-156.9,17.5c-18.6,23.3-27.1,53-23.7,82.5
	C460,430.8,462,439.3,465,447.5L465,447.5z"/>
<path class="st1" d="M557,411.3c-4-5.8-7.6-11.8-10.9-18c-2.5-5.1-3.7-10.7-3.5-16.4c0.3-6.6,2.9-12.9,7.3-17.8
	c3.7-4.7,8.6-8.2,14.2-10.2c6.1-2.1,12.7-2.4,18.9-0.9c7.7,1.9,14.9,5.6,21,10.8l0,0l8.4-10.6l5.1,4l-8.7,10.9
	c7.9,7,13.3,16.2,15.6,26.5c1.9,9.4-0.1,19.1-5.6,27l-20-15.6c2.2-3.4,3.2-7.4,3-11.4c-0.3-4.3-1.9-8.3-4.8-11.5l-20.8,26.1l2,2.9
	c4.1,5.7,7.8,11.7,11.1,17.9c2.5,5,3.8,10.6,3.6,16.3c-0.6,6.7-3.3,13-7.8,17.9c-3.8,5-9.1,8.6-15.1,10.4c-6.1,1.7-12.6,1.7-18.8,0
	c-7.1-2-13.6-5.4-19.4-10l-8.9,11.2l-5-4l9-11.3c-7.9-6.6-13.4-15.6-15.6-25.5c-1.7-8.9,0.2-18.1,5.2-25.5l20.2,16.1
	c-1.8,3.1-2.7,6.7-2.4,10.3c0.3,3.7,1.8,7.3,4.3,10.1l20.7-25.5L557,411.3z M568.4,433.3c-0.8-4.5-2.5-8.7-5-12.6l-19.1,24
	c3.3,2.6,7.4,4.1,11.6,4.1c3.8-0.2,7.3-2.1,9.5-5.2C567.8,440.8,568.9,437,568.4,433.3z M580.7,369c-4.1,0.3-7.8,2.4-10.2,5.7
	c-2.5,2.9-3.6,6.8-2.9,10.6c1,4.6,2.9,8.9,5.5,12.7l19.8-24.8c-3.5-3-7.9-4.5-12.5-4.2L580.7,369z"/>
<rect x="229.7" y="246.4" transform="matrix(1.692891e-02 -0.9999 0.9999 1.692891e-02 -215.9135 1008.8267)" class="st0" width="350.7" height="735.5"/>
<path class="st1" d="M795.8,437.8c0.9,2.5,1.3,5.2,1.3,7.8l-5.9,350.7c-0.1,11.8-9.8,21.2-21.6,21.1c-0.1,0-0.1,0-0.2,0L34.1,804.9
	c-5.7-0.2-11.1-2.5-15.1-6.6c-3.9-4.1-6.1-9.6-6-15.2l5.9-350.7c0.2-11.8,10-21.2,21.8-21c0,0,0,0,0,0l735.4,12.4
	C784.9,424,792.8,429.5,795.8,437.8z M749,773.7l5.2-307.8L61.3,454.2l-5.2,307.9L749,773.7z"/>
<circle class="st2" cx="406.8" cy="614.2" r="125.6"/>
<path class="st1" d="M538.1,567c5.6,15.9,8.2,32.7,7.8,49.5c-2.6,77-67.1,137.3-144.1,134.7C326.6,748.7,267,687,267,611.8l0,0
	c1.5-77.1,65.2-138.3,142.2-136.8c57.7,1.1,108.8,37.7,128.5,92L538.1,567z M301.7,651.9c20.8,58.2,84.7,88.5,142.9,67.7
	c58.2-20.8,88.5-84.7,67.7-142.9c-20.8-58.2-84.7-88.5-142.9-67.7c-43.8,15.6-73.4,56.8-74.2,103.3l0,0
	C294.9,625.8,297.1,639.2,301.7,651.9z"/>
<path class="st1" d="M396.5,625.1c-6.7-2.2-13.2-4.8-19.6-7.8c-5.1-2.5-9.5-6.3-12.8-10.9c-3.7-5.5-5.4-12-5-18.5
	c0.1-6,1.8-11.8,5-16.9c3.6-5.3,8.6-9.5,14.5-12.1c7.4-3.2,15.4-4.7,23.4-4.3l0,0V541h6.4v14c10.5,0.7,20.6,4.7,28.7,11.4
	c7.2,6.3,11.5,15.2,11.9,24.8h-25.5c-0.4-4-2-7.9-4.6-10.9c-2.8-3.2-6.6-5.4-10.8-6.2l-0.5,33.3l3.4,1.1c6.7,2,13.3,4.5,19.7,7.4
	c5,2.3,9.4,5.8,12.7,10.2c3.7,5.5,5.5,12.1,5.1,18.8c0,6.2-2,12.3-5.7,17.3c-3.8,5.2-9,9.3-15,11.6c-6.8,2.7-14.1,4.1-21.4,3.9V692
	h-6.5v-14.5c-10.3-0.4-20.1-4.1-28-10.7c-6.7-6-10.8-14.4-11.4-23.4l25.9,0.5c0.4,3.6,2,7,4.4,9.7c2.5,2.7,5.8,4.6,9.5,5.3l0.5-32.3
	L396.5,625.1z M418.8,635.7c-3.4-3-7.3-5.4-11.6-6.9l-0.5,30.5c4.2,0.1,8.3-1.2,11.7-3.7c2.9-2.5,4.5-6.2,4.3-10
	c0.3-3.7-1.1-7.3-3.7-10H418.8z M389.3,577.2c-3,2.7-4.7,6.6-4.6,10.7c-0.2,3.9,1.3,7.6,4.2,10.2c3.6,3,7.7,5.3,12.2,6.8l0.5-31.8
	c-4.4-0.2-8.7,1.3-12.1,4.1H389.3z"/>
</svg>
