<?xml version="1.0" encoding="utf-8"?>
<!-- Generator: Adobe Illustrator 26.0.3, SVG Export Plug-In . SVG Version: 6.00 Build 0)  -->
<svg version="1.1" id="a" xmlns="http://www.w3.org/2000/svg" xmlns:xlink="http://www.w3.org/1999/xlink" x="0px" y="0px"
	 viewBox="0 0 1000 1000" style="enable-background:new 0 0 1000 1000;" xml:space="preserve">
<style type="text/css">
	.st0{fill:#E9DCFF;}
	.st1{fill:#5A1372;}
	.st2{fill:#FA405C;}
</style>
<g>
	<circle class="st0" cx="511.3" cy="511.8" r="421.7"/>
	<path class="st1" d="M511.3,953.1c-59.6,0-117.4-11.7-171.8-34.7c-52.6-22.2-99.7-54-140.3-94.6c-40.5-40.5-72.3-87.7-94.6-140.3
		C81.7,629.1,70,571.3,70,511.8S81.7,394.4,104.7,340c22.2-52.6,54-99.7,94.6-140.3s87.7-72.3,140.3-94.6
		c54.4-23,112.2-34.7,171.8-34.7s117.4,11.7,171.8,34.7c52.6,22.2,99.7,54,140.3,94.6c40.5,40.5,72.3,87.7,94.6,140.3
		c23,54.4,34.7,112.2,34.7,171.8S941,629.1,917.9,683.5c-22.2,52.6-54,99.7-94.6,140.3c-40.5,40.5-87.7,72.3-140.3,94.6
		C628.7,941.4,570.9,953.1,511.3,953.1L511.3,953.1z M511.3,109.6c-54.3,0-107,10.6-156.5,31.6c-47.9,20.3-90.9,49.3-127.8,86.2
		c-36.9,36.9-65.9,80-86.2,127.8c-21,49.6-31.6,102.2-31.6,156.5s10.6,107,31.6,156.5c20.3,47.9,49.3,90.9,86.2,127.8
		c36.9,36.9,80,65.9,127.8,86.2c49.6,21,102.2,31.6,156.5,31.6s107-10.6,156.5-31.6c47.9-20.3,90.9-49.3,127.8-86.2
		c36.9-36.9,65.9-80,86.2-127.8c21-49.6,31.6-102.2,31.6-156.5s-10.6-107-31.6-156.5c-20.3-47.9-49.3-90.9-86.2-127.8
		c-36.9-36.9-80-65.9-127.8-86.2C618.3,120.2,565.6,109.6,511.3,109.6L511.3,109.6z"/>
	<path class="st1" d="M442.1,472.3c-7.7,0-14.9-4.5-18.1-12c-24.5-58.9-51.8-91.5-76.7-91.7c-0.1,0-0.2,0-0.3,0
		c-37.7,0-76.3,68.1-86.9,92.1c-4.4,9.9-15.9,14.4-25.8,10c-9.9-4.4-14.4-15.9-10-25.8c0.5-1.1,12.5-28.3,32.4-55.7
		c28.8-39.6,59.1-59.7,90.2-59.7c0.2,0,0.5,0,0.7,0c21.3,0.2,41.5,9.9,60,28.8c18.9,19.3,36.1,47.7,52.4,87
		c4.2,10-0.6,21.4-10.5,25.6C447.2,471.8,444.6,472.3,442.1,472.3L442.1,472.3z"/>
	<path class="st1" d="M780.7,472.3c-7.7,0-14.9-4.5-18.1-12c-24.5-58.9-51.8-91.5-76.7-91.7c-0.1,0-0.2,0-0.3,0
		c-37.7,0-76.3,68.1-86.9,92.1c-4.4,9.9-15.9,14.4-25.8,10c-9.9-4.4-14.4-15.9-10-25.8c0.5-1.1,12.5-28.3,32.4-55.7
		c29-39.9,59.6-60,90.9-59.7c21.3,0.2,41.5,9.9,60,28.8c18.9,19.3,36.1,47.7,52.4,87c4.2,10-0.6,21.4-10.5,25.6
		C785.7,471.8,783.2,472.3,780.7,472.3L780.7,472.3z"/>
	<g>
		<path class="st1" d="M700.5,629.6c0,0-85.8,111.4-197.2,111.4s-184-111.4-184-111.4s85.3,56,190.6,56S700.5,629.6,700.5,629.6
			L700.5,629.6z"/>
		<path class="st1" d="M503.3,760.6c-50.3,0-101-20.9-146.6-60.5c-33.7-29.3-53-58.6-53.8-59.8c-5-7.8-4-18,2.6-24.5
			c6.6-6.5,16.8-7.6,24.5-2.5c0.8,0.5,82,52.7,179.9,52.7s179.1-52.2,179.9-52.8c8-5.2,18.6-3.9,25.1,3.1c6.5,7,7,17.6,1.1,25.2
			C712.2,646.4,622.9,760.6,503.3,760.6L503.3,760.6z M406.8,689.4c31.4,21.3,63.7,32,96.5,32s65.6-11.8,92.7-27.4
			c-26,6.5-55.2,11-86.1,11C472.1,705.1,436.8,698.3,406.8,689.4L406.8,689.4z"/>
	</g>
	<g>
		<path class="st2" d="M227.9,555.7c-59.7-45.9-94.4,55.1-94.4,55.1s-95.4-51-105.7,15.4C11.9,728.6,182.8,758.3,182.8,758.3
			S287.6,601.5,227.9,555.7L227.9,555.7z"/>
		<path class="st1" d="M182.8,774.7c-0.9,0-1.9-0.1-2.8-0.2c-1.8-0.3-45.5-8.1-87.9-29.1c-76.2-37.8-85.8-87-80.5-121.6
			c3.8-24.9,17.4-36.5,28.1-41.8c26.8-13.4,63.9-2,85.2,6.9c9.4-19.8,28.1-50.4,56.8-59.1c12.8-3.9,33-4.7,56.1,13l0,0
			c18.2,14,26.5,35.9,24.5,65.1c-1.4,20.5-7.9,45-19.5,72.7c-19.1,45.9-45.3,85.3-46.4,86.9C193.3,772,188.2,774.7,182.8,774.7
			L182.8,774.7z M68.5,608.4c-5.8,0-10.6,0.9-14.2,2.7c-3.6,1.8-8.5,5.5-10.4,17.5c-5.3,34.5,15.6,63.7,62.2,87
			c26.5,13.2,54.3,20.8,69,24.2c8.6-14,25.1-42,37.7-72.4c12.1-29.1,28.8-80.6,5.1-98.8l0,0c-14.7-11.3-23.7-8.5-26.7-7.6
			c-21.1,6.3-38,42.8-42.3,55.1c-1.6,4.5-5,8.1-9.5,9.9c-4.5,1.7-9.5,1.5-13.7-0.8c-0.1-0.1-13.1-6.9-29.3-11.9
			C85.7,610.1,76.3,608.4,68.5,608.4L68.5,608.4z"/>
	</g>
	<g>
		<path class="st2" d="M844.1,143.7c-9-74.8-105.4-28.9-105.4-28.9s-30.3-103.9-85-64.7c-84.2,60.3,14.1,203.2,14.1,203.2
			S853.2,218.5,844.1,143.7L844.1,143.7z"/>
		<path class="st1" d="M667.9,269.7c-5.3,0-10.4-2.6-13.5-7.1c-1.1-1.5-26.1-38.2-40.7-83.2c-26.3-80.9,2.1-122.2,30.5-142.6
			c20.5-14.7,38.2-13.1,49.5-9.2c28.3,9.8,46.1,44.3,54.7,65.7c20.7-7.1,55.7-15.2,82-0.8c11.7,6.5,26.5,20.3,30,49.2l0,0
			c2.8,22.8-7.1,44.1-29.3,63.1c-15.6,13.4-37.7,25.8-65.6,36.9c-46.2,18.4-92.6,27.3-94.6,27.7
			C669.9,269.6,668.9,269.7,667.9,269.7L667.9,269.7z M677.9,57.6c-3.6,0-8.4,1.3-14.6,5.8c-28.3,20.3-34.6,55.7-18.7,105.3
			c9.1,28.2,23.1,53.4,31,66.2c16-3.6,47.6-11.5,78.1-23.7c29.3-11.7,77.8-35.8,74.2-65.5l0,0c-2.2-18.4-10.5-22.9-13.3-24.5
			c-9-4.9-23.8-5.3-41.8-0.9c-15,3.6-26.9,9.2-27,9.3c-4.3,2.1-9.4,2.1-13.7,0.2c-4.4-2-7.7-5.7-9-10.3c0-0.1-4.2-14.2-12-29.2
			c-9-17.3-18.9-28.5-27.9-31.6C681.7,58.1,680,57.6,677.9,57.6L677.9,57.6z"/>
	</g>
	<g>
		<path class="st2" d="M960.9,719.4C918.2,657.3,854,742.6,854,742.6s-75-78-105.3-18c-46.7,92.5,106.6,173.6,106.6,173.6
			S1003.5,781.5,960.9,719.4L960.9,719.4z"/>
		<path class="st1" d="M855.4,914.5c-2.6,0-5.2-0.6-7.7-1.9c-1.6-0.9-40.8-21.8-74.6-54.9c-60.8-59.5-54.7-109.3-39-140.5
			c11.3-22.5,27.8-29.3,39.6-31.1c29.6-4.4,61.4,17.9,78.9,32.9c15-15.9,42.3-39.3,72.3-38.6c13.4,0.3,32.9,5.7,49.4,29.7l0,0
			c13,19,14.1,42.3,3.2,69.5c-7.7,19.1-21.5,40.3-41,63.1c-32.4,37.7-69.5,67.1-71,68.3C862.6,913.3,859,914.5,855.4,914.5
			L855.4,914.5z M781.8,718.3c-1.1,0-2.2,0.1-3.2,0.2c-3.9,0.6-9.8,2.6-15.3,13.5c-15.8,31.3-4.8,65.7,32.7,102.4
			c21.1,20.6,44.9,36.2,57.7,44c12.5-10.6,36.8-32.2,58.2-57.2c20.5-23.9,52.4-67.8,35.4-92.4l0,0c-10.5-15.2-19.9-15.5-23-15.5
			c-22-0.5-49.4,29-57.2,39.3c-2.9,3.8-7.3,6.2-12.1,6.5s-9.4-1.5-12.8-5c-0.1-0.1-10.3-10.6-24.2-20.3
			C803.8,723.6,791.1,718.3,781.8,718.3L781.8,718.3z"/>
	</g>
</g>
</svg>
