<?xml version="1.0" encoding="utf-8"?>
<!-- Generator: Adobe Illustrator 26.0.3, SVG Export Plug-In . SVG Version: 6.00 Build 0)  -->
<svg version="1.1" id="a" xmlns="http://www.w3.org/2000/svg" xmlns:xlink="http://www.w3.org/1999/xlink" x="0px" y="0px"
	 viewBox="0 0 1000 1000" style="enable-background:new 0 0 1000 1000;" xml:space="preserve">
<style type="text/css">
	.st0{fill:#FA405C;}
	.st1{fill:#5A1372;}
</style>
<g>
	<path class="st0" d="M731.1,59.3C619-38.4,538.3,156.3,538.3,156.3S356.5,44.2,328.2,173.8c-43.6,199.8,289.5,279.2,289.5,279.2
		S843.2,156.9,731.1,59.3L731.1,59.3z"/>
	<path class="st1" d="M639.3,477c-7.8,7-18.7,9.9-29.1,7.4c-3.6-0.9-88.8-21.5-169.7-68.1C294.9,332.5,281.9,234.5,296.6,167
		c10.6-48.6,38.7-69.8,60.5-79c54.3-23.1,126.2,3.9,167.1,23.9c20.9-37.8,61.5-96,119.2-109.5c25.8-6,65.6-5.3,109,32.5l0,0
		c34.2,29.8,47.8,74,40.4,131.3c-5.2,40.2-21.1,87.6-47.3,140.9c-43.3,88.1-99.7,162.5-102.1,165.6
		C642.1,474.2,640.8,475.7,639.3,477L639.3,477z M373.6,152.9c-5.3,4.8-10.6,12.9-13.8,27.8c-14.7,67.3,23,127.5,111.9,179
		c50.5,29.3,104.5,47.6,133,56.2c18.7-26.5,54.5-79.8,83.1-138.1c27.4-55.9,66.7-155.4,22.1-194.2l0,0c-27.6-24-45.8-19.7-51.8-18.3
		c-19.6,4.6-41.8,23.8-62.5,54c-17.2,25.1-27.3,49.1-27.4,49.3c-3.6,8.7-10.9,15.5-19.9,18.4c-9,2.9-18.8,1.7-26.9-3.2
		c-0.2-0.1-25-15.3-56.2-27c-36-13.5-65.4-16.8-82.8-9.4C379.7,148.6,376.6,150.2,373.6,152.9L373.6,152.9z"/>
</g>
<g>
	<path class="st0" d="M207.6,547.4c-100,110.1,93.1,194.8,93.1,194.8s-115.9,179.5,13.2,210.4C512.7,1000.4,599,669,599,669
		S307.6,437.3,207.6,547.4L207.6,547.4z"/>
	<path class="st1" d="M623.4,647.9c6.9,7.9,9.6,18.9,6.8,29.3c-0.9,3.6-23.3,88.3-71.6,168.3C471.8,989.2,373.5,1000.2,306.3,984
		c-48.3-11.6-69-40.2-77.7-62.1c-21.9-54.8,6.6-126,27.4-166.5c-37.3-21.7-94.7-63.5-107-121.4c-5.5-25.9-4-65.7,34.7-108.3l0,0
		c30.5-33.6,75-46.3,132.1-37.7c40.1,6,87.2,22.9,139.9,50.2c87.1,45.1,160.4,103,163.5,105.5C620.7,645,622.1,646.4,623.4,647.9
		L623.4,647.9z M293.9,906.8c4.7,5.4,12.7,10.9,27.5,14.4c66.9,16.1,128-20.3,181.3-108.2c30.3-49.9,49.8-103.5,58.9-131.8
		c-26.1-19.3-78.6-56.2-136.4-86c-55.3-28.5-154-69.9-193.7-26.1l0,0c-24.6,27.1-20.6,45.4-19.4,51.4c4.2,19.7,22.9,42.3,52.7,63.6
		c24.8,17.7,48.5,28.3,48.8,28.4c8.7,3.8,15.2,11.2,18,20.3s1.3,18.9-3.8,26.8c-0.1,0.2-15.8,24.7-28.1,55.6
		c-14.2,35.7-18.2,65-11.1,82.6C289.6,900.6,291.2,903.7,293.9,906.8L293.9,906.8z"/>
</g>
</svg>
