<?xml version="1.0" encoding="utf-8"?>
<!-- Generator: Adobe Illustrator 26.0.3, SVG Export Plug-In . SVG Version: 6.00 Build 0)  -->
<svg version="1.1" id="a" xmlns="http://www.w3.org/2000/svg" xmlns:xlink="http://www.w3.org/1999/xlink" x="0px" y="0px"
	 viewBox="0 0 1000 1000" style="enable-background:new 0 0 1000 1000;" xml:space="preserve">
<style type="text/css">
	.st0{fill:#9280AB;}
	.st1{fill:#E9DCFF;}
	.st2{fill:#5A1372;}
</style>
<path class="st0" d="M372.9,684.4c-63.6-23.8-110.9-41.6-155.7-8.9l-41.1,190.7c-1.2,5.6,2.4,11.1,8,12.3c0.1,0,0.2,0,0.2,0
	l400.3,87.3c5.6,1.1,11.1-2.5,12.2-8.1c0,0,0-0.1,0-0.1l54.7-250.8C535.8,745.6,446.1,711.9,372.9,684.4z"/>
<path class="st1" d="M706.3,430.3L305.6,341c-5.6-1.2-11.1,2.4-12.3,8c0,0.1,0,0.2,0,0.2l-67.6,318c11.7-5,24.1-8,36.8-8.9
	c38.1-2.8,78.3,12.7,120.7,29c76,29.3,161.7,62.3,275.8,17l55.4-261c1.5-5.7-1.8-11.5-7.5-13C706.7,430.4,706.5,430.4,706.3,430.3z"
	/>
<path class="st2" d="M308,339.6h2.1l383.8,83.7c5.3,1.1,8.7,6.3,7.6,11.6c0,0.1,0,0.1,0,0.2L589.2,950c-0.8,4.7-4.9,8.1-9.6,8.2
	c-0.7,0.1-1.4,0.1-2.1,0l-383.9-83.6c-5.3-1.2-8.7-6.4-7.6-11.8l112.3-515.1c1-4.5,5-7.7,9.6-7.7 M308,298c-11.7,0-23.1,4-32.3,11.3
	c-9.3,7.4-15.8,17.9-18.3,29.5L145,853.9c-6.1,28,11.7,55.6,39.7,61.7l384,83.1c3.6,0.8,7.3,1.2,11,1.2
	c24.5-0.1,45.5-17.2,50.6-41.1l112.3-515c2.9-13.5,0.4-27.5-7.1-39.1c-7.5-11.7-19.3-19.8-32.9-22.6l-383.9-83.7
	c-3.6-0.8-7.3-1.1-11-1.2L308,298z"/>
<path class="st1" d="M682.6,396.5c-1.7,0-3.4-0.2-5.1-0.6l-342-74.5c-12.9-2.8-21.1-15.6-18.3-28.5c0,0,0,0,0,0l23.8-109.8
	c2.5-11,12.2-18.8,23.4-18.8c1.7,0,3.4,0.2,5.1,0.5l342,74.6c6.2,1.4,11.7,5.1,15.1,10.4c3.5,5.4,4.6,11.9,3.2,18.1l-23.9,109.7
	C703.6,388.6,693.9,396.5,682.6,396.5L682.6,396.5z"/>
<path class="st2" d="M364.5,185.3h0.7l342,74.5c1.6,0.4,2.6,1.9,2.2,3.5l-23.8,109.8c-0.3,1.4-1.5,2.4-3,2.4H682l-342-74.6
	c-1.6-0.3-2.6-1.9-2.3-3.5c0,0,0,0,0,0l23.9-109.7C361.9,186.3,363.1,185.4,364.5,185.3 M364.5,143.3c-21.1,0-39.4,14.8-43.9,35.4
	l-23.9,109.7c-5.3,24.3,10.1,48.2,34.4,53.5c0,0,0,0,0,0l342,74.6c3.1,0.7,6.3,1,9.5,1c10.2,0,20.1-3.4,28-9.8
	c8.1-6.5,13.7-15.5,15.9-25.6l23.9-109.8c5.3-24.3-10.1-48.2-34.4-53.5c0,0,0,0,0,0l-342-74.5C371,143.6,367.8,143.3,364.5,143.3z"
	/>
<path class="st1" d="M393.1,175l85.2-93.2c9.4-10.2,21.2-17.8,34.4-22.1c6.8-23.1,28.3-38.8,52.4-38.4c5.3,0,10.5,0.6,15.7,1.7
	c14.8,2.7,28,10.8,37.2,22.8c8.2,12,11.5,26.7,9.2,41.1c8.6,8.7,15.1,19.3,18.9,31l40.4,121.2L393.1,175z"/>
<path class="st2" d="M565.2,42.3c3.8,0,7.5,0.5,11.2,1.3c20.7,4.5,35.2,18.5,29,46.7c-0.3,1.4-0.7,2.9-1.2,4.3
	c10.4,7.3,18.2,17.8,22.1,29.8l28.7,86.2l-222-48.3l60.8-66.3c9.5-10.3,22.4-16.9,36.3-18.7c-0.1-1.1-0.1-2.2,0-3.3
	c5-23,18.6-31.7,34.6-31.7 M564.6,0.3L564.6,0.3c-17.7-0.3-34.8,5.7-48.4,17c-8.5,7.1-15.3,16-20,26.1
	c-12.8,5.7-24.3,13.9-33.8,24.2l-60.8,66.3l-49.3,53.9l71.4,15.5l222,48.3l72.1,15.7l-23.3-70l-28.4-86.5
	c-3.8-11.6-9.7-22.3-17.3-31.8c0.6-16.3-4.3-32.4-13.7-45.7c-12-16.1-29.6-27.2-49.3-31.1C579.2,0.8,572.4,0,565.6,0L564.6,0.3z"/>
<path class="st2" d="M287.4,554.8h-3l-36.4-8.2c-7.3-1.9-11.6-9.4-9.7-16.7c1.8-6.8,8.6-11.2,15.5-9.9l36.5,8.2
	c7.4,1.4,12.2,8.5,10.8,15.9c-1.2,6.5-7,11.2-13.6,11L287.4,554.8z"/>
<path class="st2" d="M313.2,633.9c-1,0.1-2,0.1-3,0l-71-15.5c-7.3-1.6-12-8.8-10.4-16.2c1.6-7.3,8.8-12,16.2-10.4l71,15.5
	c7.4,1.4,12.2,8.5,10.8,15.9c-1.2,6.5-7,11.2-13.6,11L313.2,633.9z"/>
<path class="st2" d="M274.7,808.7c-1,0.1-2,0.1-3,0l-71-15.5c-7.3-1.9-11.6-9.4-9.7-16.7c1.8-6.8,8.6-11.2,15.5-9.9l71,15.5
	c7.4,1.4,12.2,8.5,10.8,15.9c-1.2,6.5-7,11.2-13.6,11L274.7,808.7z"/>
<path class="st2" d="M258.5,719.2c-1,0.1-1.9,0.1-2.9,0l-36.5-8.2c-7.3-1.6-12-8.8-10.4-16.2c1.6-7.3,8.8-12,16.2-10.4l36.5,8.2
	c7.4,1.6,12,8.9,10.3,16.3c-1.4,6.2-6.9,10.6-13.2,10.7L258.5,719.2z"/>
<path class="st2" d="M339.9,493.5c-1,0.1-2,0.1-3,0l-71-15.5c-7.3-2-11.5-9.5-9.5-16.8c1.8-6.7,8.4-10.9,15.3-9.9l71,15.5
	c7.4,1.6,12,8.9,10.3,16.3c-1.4,6.2-6.9,10.6-13.2,10.7L339.9,493.5z"/>
<path class="st2" d="M191.5,741c-2.6,0-5.1-0.7-7.3-2.1c-6.3-4-8.2-12.4-4.2-18.7c0,0,0,0,0,0c30.6-48.4,63.7-72.4,104.3-75.6
	c35.8-2.7,73.2,11.4,112.8,26.6c72.9,27.7,155.6,59.1,267.4,9.9c6.4-4,14.8-2.1,18.8,4.2c4,6.4,2.1,14.8-4.2,18.8
	c-1.1,0.7-2.3,1.2-3.6,1.6c-122.1,53.8-214.2,18.7-287.8-9.4c-38.2-14.6-71.3-27.1-101-24.7c-19.6,1.5-49.3,9.7-83.4,63
	C200.8,738.6,196.3,741.1,191.5,741z"/>
</svg>
