<?xml version="1.0" encoding="utf-8"?>
<!-- Generator: Adobe Illustrator 26.0.3, SVG Export Plug-In . SVG Version: 6.00 Build 0)  -->
<svg version="1.1" id="a" xmlns="http://www.w3.org/2000/svg" xmlns:xlink="http://www.w3.org/1999/xlink" x="0px" y="0px"
	 viewBox="0 0 1000 1000" style="enable-background:new 0 0 1000 1000;" xml:space="preserve">
<style type="text/css">
	.st0{fill:#FA405C;}
	.st1{fill:#5A1372;}
	.st2{fill:#E9DCFF;}
	.st3{opacity:0.96;}
	.st4{fill:#8C82A5;}
</style>
<polygon class="st0" points="728.9,122.6 958.3,149.4 850.1,836.1 637.4,781.7 "/>
<path class="st1" d="M850.1,855.2c-1.6,0-3.1-0.2-4.7-0.6L633,800c-9.4-2.4-15.4-11.4-14.1-21l91.3-659c1.4-10.2,10.7-17.5,21-16.2
	l229.4,26.8c5.1,0.6,9.8,3.3,12.9,7.4c3.1,4.1,4.4,9.3,3.6,14.4L869,839.1C867.5,848.3,859.5,855.2,850.1,855.2L850.1,855.2z
	 M658.3,767.5l176.1,45.1l102-646.6l-191.2-22.4L658.3,767.5z"/>
<path class="st2" d="M541.7,759.7C379.4,759.5,248,627.7,248.2,465.4c0.2-162.3,131.9-293.7,294.3-293.5s293.7,131.9,293.5,294.3
	c-0.1,78-31.2,152.7-86.4,207.8C694.5,729.1,619.6,760,541.7,759.7z"/>
<path class="st1" d="M541.7,191.2c151.8,0,274.9,123.1,274.9,274.9S693.5,741.1,541.7,741.1S266.7,618,266.7,466.1c0,0,0,0,0,0
	C266.7,314.3,389.8,191.2,541.7,191.2 M541.7,153.2c-172.6,0.1-312.4,140-312.4,312.6c0.1,172.6,140,312.4,312.6,312.4
	c172.6-0.1,312.4-140,312.4-312.6c-0.1-125.5-75.2-238.9-190.9-287.7C624.9,161.5,583.5,153.1,541.7,153.2z"/>
<circle class="st2" cx="541.7" cy="466.1" r="194.9"/>
<path class="st1" d="M541.7,283.9c100.8,0,182.6,81.7,182.6,182.6c0,100.8-81.7,182.6-182.6,182.6c-100.8,0-182.6-81.7-182.6-182.6
	c0-0.1,0-0.2,0-0.3C359.3,365.4,441,283.9,541.7,283.9 M541.7,259.2c-114.1,0.3-206.3,93.1-206,207.1s93.1,206.3,207.1,206
	c114.1-0.3,206.3-93.1,206-207.1c-0.2-82.9-50-157.7-126.5-189.8c-25.5-10.8-52.9-16.4-80.6-16.3V259.2z"/>
<g class="st3">
	<path class="st4" d="M336.1,804.9c-11.3,0-22-5.2-29-14.2L151.5,588.9h-2.6c-13,0.1-25.3-5.9-33.2-16.1l-75.8-98.5
		c-4.6-5.7-6.6-13.2-5.3-20.5c1.2-6.5,4.8-12.2,10-16.1c2.8-2.2,6-3.8,9.4-4.8c1.8-3.1,4.2-5.8,7.1-7.9c2.8-2.2,6-3.9,9.4-4.8
		c1.8-3.1,4.1-5.8,7-8c2.8-2.2,6.1-3.8,9.5-4.8c1.8-3.1,4.2-5.8,7.1-8c4.6-3.4,10.3-5.3,16.1-5.2c8.1,0,15.6,3.9,20.4,10.4
		l60.4,78.1l15.4,20c8.5,11.1,11,25.7,6.5,38.9l155.4,201.9c12.1,16,9.1,38.7-6.7,51l-3.1,2.5C352.1,802,344.2,804.8,336.1,804.9z"
		/>
	<path class="st1" d="M110.2,413c2.2,0.1,4.1,1.2,5.4,3l60.3,78.3l15.5,20.1c6.6,8.7,6.3,20.8-0.9,29.1l0,0L353.3,755
		c5.9,7.7,4.5,18.7-3.2,24.7c0,0,0,0-0.1,0.1l-3.1,2.5c-7.7,5.9-18.8,4.5-24.7-3.1L159.1,567.6l0,0c-3.2,1.6-6.7,2.4-10.2,2.4
		c-7.1,0-13.8-3.3-18.2-8.9L55,462.7c-2.4-2.7-2.2-6.8,0.5-9.2c0.3-0.2,0.5-0.4,0.8-0.6c1.3-1.1,2.9-1.7,4.6-1.8
		c2.2,0.1,4.1,1.2,5.4,3l61.1,79.3c0.6,0.8,1.6,1.3,2.6,1.3c0.7,0,1.4-0.2,2-0.7l0,0c1.4-1.1,1.7-3.1,0.6-4.5c0,0,0,0-0.1-0.1
		l-61-79.3c-2.4-2.7-2.2-6.9,0.5-9.4c0.2-0.2,0.5-0.4,0.8-0.6c1.3-1,2.9-1.6,4.5-1.7c2.2,0.1,4.2,1.2,5.4,3l61,79.3
		c0.6,0.8,1.6,1.3,2.6,1.3c0.7,0,1.5-0.2,2-0.7c1.4-1.1,1.7-3.1,0.6-4.5c0,0,0,0-0.1-0.1l-61.1-79.3c-2.5-2.7-2.3-6.9,0.4-9.4
		c0.2-0.2,0.5-0.4,0.7-0.6c1.3-1,2.9-1.6,4.5-1.7c2.2,0.1,4.2,1.2,5.4,3l61.1,79.3c0.6,0.8,1.6,1.3,2.6,1.3c0.7,0,1.4-0.3,2-0.7l0,0
		c1.5-1,2-2.9,1-4.5c0-0.1-0.1-0.1-0.2-0.2l-61.1-79.3c-2.4-2.8-2-7,0.8-9.3c0.3-0.2,0.5-0.4,0.8-0.6c1.3-1.1,2.8-1.7,4.5-1.7
		 M110.5,375.1c-10,0-19.8,3.4-27.7,9.5c-2.8,2.1-5.3,4.6-7.6,7.3c-3.2,1.5-6.2,3.3-9,5.4c-2.8,2.1-5.3,4.6-7.5,7.3
		c-3.2,1.5-6.2,3.3-9,5.4c-2.8,2.1-5.3,4.5-7.5,7.2c-3.2,1.5-6.2,3.3-8.9,5.4c-19.7,14.7-23.8,42.6-9.1,62.3
		c0.2,0.2,0.4,0.5,0.6,0.7l75.8,98.4c10.1,13,24.9,21.4,41.3,23.4l150.1,194.6c18.7,24.3,53.5,28.9,77.8,10.2c0,0,0.1-0.1,0.1-0.1
		l3.2-2.5c24.3-18.8,28.8-53.6,10.1-77.9L233.4,537.2c2.5-16.3-1.9-33-12-46.1L206,470.8l0,0l-60.4-78.3
		c-8.4-11.1-21.4-17.7-35.3-17.8L110.5,375.1z"/>
</g>
<path class="st4" d="M412.4,846c-13.9,0-26.6-7.8-32.8-20.3l-91.8-185V640l-99.1-198.7c-3.7-7.4-3.7-16.2,0-23.6
	c3.5-7,10.1-11.8,17.8-13.1c2.8-0.4,5.7-0.7,8.5-0.7c24.6,0,49.2,16.5,61.6,26.3c18.1,13.9,33,31.5,43.8,51.6
	c17,34,30.8,110.5,34,128.2l90.9,183c9,18.2,1.5,40.2-16.7,49.2c-5,2.5-10.5,3.8-16.1,3.8H412.4z"/>
<path class="st1" d="M215,422.9c30.1,0,73.3,36.8,88.4,67.3c17,34.9,32.2,123.5,32.5,125.7l92.2,185.6c4.3,8.7,0.8,19.3-7.9,23.6
	c0,0-0.1,0-0.1,0c-2.4,1.2-5.1,1.9-7.8,1.9c-6.7,0-12.9-3.8-15.8-9.9l-92-185l0,0l-98.8-199.3c-1.8-3-0.9-6.9,2.1-8.8
	c0.6-0.4,1.2-0.6,1.9-0.8C211.5,423.1,213.2,422.9,215,422.9 M215,385c-3.8,0-7.7,0.3-11.5,0.9c-13.6,2.3-25.4,10.8-31.7,23.1
	c-6.4,12.8-6.4,27.9,0,40.8l98.6,198.7l0.5,1l91.7,184.5c4.7,9.4,11.9,17.3,20.9,22.8c8.7,5.4,18.7,8.4,28.9,8.5
	c8.5,0,17-2,24.6-5.8c27.5-13.6,38.7-47,25.1-74.5c0,0,0,0,0,0L372.4,604c-1.5-8.5-4.8-26.8-9.3-46.8c-5.3-28.8-13.9-56.9-25.5-83.8
	c-12.1-22.6-28.8-42.3-49-58C271,401.5,244.1,385,215.2,385L215,385z"/>
</svg>
