<?xml version="1.0" encoding="utf-8"?>
<!-- Generator: Adobe Illustrator 26.0.3, SVG Export Plug-In . SVG Version: 6.00 Build 0)  -->
<svg version="1.1" id="a" xmlns="http://www.w3.org/2000/svg" xmlns:xlink="http://www.w3.org/1999/xlink" x="0px" y="0px"
	 viewBox="0 0 1000 1000" style="enable-background:new 0 0 1000 1000;" xml:space="preserve">
<style type="text/css">
	.st0{fill:#FA405C;}
	.st1{fill:#5A1372;}
	.st2{fill:#E9DCFF;}
	.st3{fill:#8C82A5;}
</style>
<path class="st0" d="M690.7,160.6L560.4,67.9c-30.6-21.6-69.7-27-104.9-14.4c-13.6,4.4-27,9.5-40,15.3c11.3,38.5-23.5,82.9-78,99.2
	l0,0l-2,0.7l-2,0.6l0,0c-54.3,16.4-107.7-1.6-119-40.1c-14.1,2.3-28.1,5.4-41.9,9.2c-36.4,8.9-66.2,34.9-80,69.9
	c-24,60.6-59.2,149.5-59.2,149.5c-9.2,17.2-2.8,38.7,14.3,48c0.1,0.1,0.2,0.1,0.3,0.2l64.4,33.9c15.7,8.1,34.9,2.7,44.2-12.4
	l30.8-49.2l0,0l110,372l0,0L481.5,695h1.3l5.2-1.6l4-1.1l5.2-1.6l1.3-0.4l184.1-55.6l0,0l-110-372l0,0l52.7,24.6
	c16.2,7.5,35.3,1.2,44-14.4l35.1-63.7c9.6-17,3.7-38.7-13.2-48.3C691,160.7,690.9,160.6,690.7,160.6z"/>
<path class="st1" d="M297.4,772c-9.7,0-18.3-6.4-21.1-15.8l-96.1-325.3l-5.1,8.2c-15.6,24.8-47.4,33.4-73.3,19.9l-64-34
	c-27.7-14.6-38.6-48.8-24.4-76.9l58.8-148.5c16.5-41.6,52-72.6,95.2-83.2c12.5-3,22.3-5.4,29.4-7l9.9-2.1l4.3-0.6
	c10.9-1.5,21.2,5.1,24.4,15.7c4.6,15.5,20.4,22.9,29.3,25.9c19.9,6,41.1,6,60.9,0l2.1-0.7h0.9h1h1l2.1-0.6
	c19.9-5.8,37.7-17.5,51.2-33.4c5.9-7.5,15.1-22.3,10.5-37.8c-3.1-10.5,1.9-21.8,11.7-26.5c1.3-0.7,2.6-1.3,3.9-1.8l9.6-3.9
	c6.8-2.5,16.3-6,28.4-10.3c42-14.9,88.5-8.5,124.9,17.2L703,142.6c27.1,15.7,36.6,50.4,21.3,77.9l-35.1,63.7
	c-10,17.8-28.6,28.8-48.9,28.9c-8,0-15.9-1.7-23.2-5.1l-8.8-4.1L704.5,629c3.5,11.6-2.9,23.8-14.3,27.5h-0.5L303.7,771.4
	C301.7,771.9,299.5,772.1,297.4,772z M187.4,356h2.9c8.6,1.2,15.7,7.3,18.2,15.7l103.7,351.1l343.5-103L552.2,268.9l0,0
	c-3.3-11.8,3.5-24,15.2-27.3c5-1.4,10.3-1,15,1.1l0,0l52.7,24.6c5.7,2.6,12.5,0.4,15.6-5.1l35.1-63.7c3.5-6.5,1.2-14.6-5.2-18.2
	c0,0-0.1,0-0.1,0l-2-1.3L548.1,86.4c-24.9-17.7-56.8-22.1-85.5-11.8c-10.4,3.7-17.9,6.5-23.3,8.2c-0.3,21-7.8,41.3-21.1,57.4
	c-19.3,23.7-45.3,40.8-74.5,49.2l0,0h-0.7l0,0l0,0h-0.7h-0.4l0,0h-0.9c-29,9.1-60,9.1-89,0c-20-6.2-37.2-19.1-48.9-36.6
	c-5.6,1.2-13.4,3.1-24.4,5.7c-29.4,7.2-53.5,28.3-64.8,56.6L53.6,365.9c0,0.7-0.7,1.5-1,2.2c-1.7,3.1-2.1,6.8-1,10.3
	c0.9,3.5,3.2,6.5,6.4,8.2l64,34c5.6,2.9,12.4,1.1,15.8-4.3l30.8-49.2C172.6,360.4,179.6,356.2,187.4,356z M436.3,62.5L436.3,62.5z"
	/>
<path class="st2" d="M577.9,914.6c-1.1,0.1-2.3,0.1-3.4,0l-185.8-29.5c-6.4-1.1-12-4.9-15.4-10.5c-3.4-5.6-4-12.5-1.9-18.7
	l123.8-354.6c3.1-8.9,11.4-14.8,20.7-14.8h3.4l217.5,34.1c12,1.9,20.2,13.2,18.4,25.3c-0.1,0.8-0.3,1.6-0.5,2.4l-65.2,238.4
	c-0.8,3-2.3,5.8-4.2,8.2l-90.4,111.4C590.7,911.6,584.5,914.6,577.9,914.6z"/>
<path class="st1" d="M515.5,508.5l217.6,33.8L668,780.7l-90.4,111.4l-185.8-29.5l123.5-354.5 M515.2,463.9
	c-18.6,0-35.3,11.9-41.4,29.6L350.3,848c-8,23,4,48.3,26.9,56.4c2.5,0.9,5.1,1.5,7.7,2l185.8,29.5c2.3,0.3,4.6,0.5,6.8,0.5
	c13.2-0.1,25.7-6.1,34-16.4L702,808.5c3.8-4.8,6.6-10.4,8.1-16.4l65.2-238.4c6.4-23.5-7.2-47.8-30.6-54.3c-1.7-0.5-3.3-0.8-5-1.1
	l-217.5-34.1c-2.3-0.4-4.6-0.6-6.8-0.6L515.2,463.9z"/>
<path class="st2" d="M904.9,966.6h-3.4L715.7,937c-8.7-1.3-15.8-7.8-17.9-16.4l-28.7-115.8c-0.7-2.7-0.8-5.5-0.4-8.2l34.5-258.3
	c1.5-11,10.8-19.2,21.8-19.2c1.2-0.1,2.3-0.1,3.5,0l171.1,27.6c10.4,1.7,18.2,10.7,18.5,21.3l9,376.3c0.3,12.2-9.4,22.4-21.5,22.6
	c-0.2,0-0.3,0-0.5,0L904.9,966.6z"/>
<path class="st1" d="M724.9,541.4L896,568.9l9,375.6l-185.8-29.5l-28.7-114.9l34.5-258.3 M725.1,497.5c-22,0-40.6,16.4-43.5,38.3
	l-34.5,258.3c-0.7,5.5-0.4,11,0.9,16.4l28.7,115.4c4.3,17.2,18.4,30.1,35.8,32.8l185.8,29.6c2.3,0.3,4.6,0.5,6.8,0.5
	c24.3,0,43.9-19.8,43.9-44.2c0-0.4,0-0.7,0-1.1l-9-375.6c-0.5-21.3-16.1-39.2-37-42.6l-171.1-27.7c-2.3-0.3-4.6-0.5-6.9-0.5
	L725.1,497.5z"/>
<path class="st2" d="M472,603.3c0,0,115.8,64.7,152-72.6"/>
<path class="st1" d="M531.3,632.9c-23.1-0.4-45.8-6.1-66.3-16.8c-7-3.9-9.5-12.7-5.7-19.7c3.8-7,12.6-9.6,19.5-5.7l0,0
	c0,0,44.1,24,81.5,8.2c23.4-10.1,40.2-34.2,50-71.6c2.3-7.6,10.3-11.9,17.8-9.5c7.2,2.2,11.4,9.6,9.7,16.9
	c-12.2,46.4-34.6,77-66.6,90.3C558.7,630.4,545.1,633.1,531.3,632.9z"/>
<path class="st2" d="M906.6,673.5c0,0-132.6,19.1-124.9-123.1"/>
<path class="st1" d="M891.3,688.9c-21.8,0-59.7-4.3-88.2-30.6c-26.2-24.1-38.1-60.5-35.6-108.1c0-7.9,6.4-14.3,14.3-14.3
	c7.9,0,14.2,6.5,14.2,14.4c0,0.5,0,1-0.1,1.5c-2,38.6,6.8,67.2,26.2,85.3c31.5,29.2,82,22.6,82.5,22.6c7.8-0.7,14.7,5.2,15.4,13.1
	c0.6,7.3-4.3,13.9-11.4,15.3C902.9,688.6,897.1,688.9,891.3,688.9z"/>
<ellipse class="st3" cx="708.9" cy="525.4" rx="18" ry="18.1"/>
</svg>
