<svg xmlns="http://www.w3.org/2000/svg" viewBox="0 0 501.14 386.07"><defs><style>.cls-1{fill:#fff;}.cls-2{fill:#521c6d;}.cls-3{fill:#9183aa;}.cls-4{fill:#e95261;}</style></defs><g id="Capa_2" data-name="Capa 2"><g id="Layer_1" data-name="Layer 1"><path class="cls-1" d="M61.89,314.73a1.66,1.66,0,1,1,3.32,0v11.61h17V314.73a1.67,1.67,0,1,1,3.33,0v26.5a1.67,1.67,0,1,1-3.33,0V329.46h-17v11.77a1.66,1.66,0,1,1-3.32,0Z"/><path class="cls-1" d="M90.24,336.4v-.09c0-4.58,3.79-7,9.3-7a23.36,23.36,0,0,1,6.69.92v-.75c0-3.92-2.4-5.94-6.48-5.94a13.67,13.67,0,0,0-5.64,1.22,1.54,1.54,0,0,1-.59.13,1.44,1.44,0,0,1-1.43-1.39,1.47,1.47,0,0,1,.89-1.34,17.05,17.05,0,0,1,7.11-1.48c3.07,0,5.42.8,7,2.4a8.6,8.6,0,0,1,2.23,6.35v11.91a1.54,1.54,0,0,1-1.55,1.6,1.5,1.5,0,0,1-1.56-1.52v-2a9.56,9.56,0,0,1-7.87,3.74C94.32,343.17,90.24,340.86,90.24,336.4Zm16-1.69v-2.1a22.79,22.79,0,0,0-6.39-.92c-4.08,0-6.36,1.76-6.36,4.5v.08c0,2.74,2.53,4.33,5.47,4.33C103,340.6,106.27,338.16,106.27,334.71Z"/><path class="cls-1" d="M113.64,340.39a1.44,1.44,0,0,1-.59-1.17,1.41,1.41,0,0,1,1.43-1.39,1.29,1.29,0,0,1,.8.25,12.24,12.24,0,0,0,6.89,2.31c2.61,0,4.51-1.34,4.51-3.45v-.08c0-2.19-2.57-3-5.43-3.83-3.41-1-7.19-2.14-7.19-6.14v-.09c0-3.74,3.11-6.22,7.4-6.22a15.1,15.1,0,0,1,6.94,1.85,1.58,1.58,0,0,1,.8,1.35,1.41,1.41,0,0,1-1.43,1.38,1.74,1.74,0,0,1-.72-.16,11.66,11.66,0,0,0-5.67-1.69c-2.57,0-4.21,1.35-4.21,3.16v.08c0,2.06,2.69,2.86,5.59,3.75,3.37,1,7,2.31,7,6.22v.09c0,4.12-3.41,6.52-7.74,6.52A15,15,0,0,1,113.64,340.39Z"/><path class="cls-1" d="M135.47,336.94V323.82H133.7a1.48,1.48,0,0,1-1.43-1.43A1.45,1.45,0,0,1,133.7,321h1.77v-5.13a1.61,1.61,0,0,1,1.6-1.65,1.68,1.68,0,0,1,1.64,1.65V321h5.64a1.48,1.48,0,0,1,1.47,1.43,1.45,1.45,0,0,1-1.47,1.43h-5.64v12.7c0,2.65,1.47,3.62,3.66,3.62a9.38,9.38,0,0,0,2-.29,1.4,1.4,0,0,1,1.39,1.38,1.36,1.36,0,0,1-.93,1.27,8.19,8.19,0,0,1-3.2.59C138.12,343.09,135.47,341.36,135.47,336.94Z"/><path class="cls-1" d="M148.26,336.4v-.09c0-4.58,3.79-7,9.3-7a23.42,23.42,0,0,1,6.69.92v-.75c0-3.92-2.4-5.94-6.48-5.94a13.67,13.67,0,0,0-5.64,1.22,1.54,1.54,0,0,1-.59.13,1.44,1.44,0,0,1-1.43-1.39,1.47,1.47,0,0,1,.88-1.34,17.12,17.12,0,0,1,7.11-1.48c3.08,0,5.43.8,7,2.4a8.6,8.6,0,0,1,2.23,6.35v11.91a1.54,1.54,0,0,1-1.56,1.6,1.5,1.5,0,0,1-1.55-1.52v-2a9.56,9.56,0,0,1-7.87,3.74C152.34,343.17,148.26,340.86,148.26,336.4Zm16-1.69v-2.1a22.87,22.87,0,0,0-6.4-.92c-4.08,0-6.35,1.76-6.35,4.5v.08c0,2.74,2.53,4.33,5.47,4.33C161,340.6,164.29,338.16,164.29,334.71Z"/><path class="cls-1" d="M204.72,348a1.62,1.62,0,1,1-3.24,0v-9.68c-1.77,2.61-4.33,4.84-8.33,4.84-5.22,0-10.39-4.12-10.39-11.27v-.09c0-7.11,5.17-11.31,10.39-11.31a9.8,9.8,0,0,1,8.33,4.62v-2.73a1.61,1.61,0,0,1,1.6-1.64,1.65,1.65,0,0,1,1.64,1.64Zm-18.64-16.24v.08c0,5.14,3.58,8.42,7.66,8.42a8.13,8.13,0,0,0,7.87-8.42v-.08a8.08,8.08,0,0,0-7.87-8.37C189.53,323.4,186.08,326.51,186.08,331.77Z"/><path class="cls-1" d="M229.16,341.28a1.6,1.6,0,1,1-3.19,0v-2.36a8.3,8.3,0,0,1-7.45,4.25c-5.26,0-8.33-3.53-8.33-8.71V322.39a1.58,1.58,0,0,1,1.6-1.64,1.64,1.64,0,0,1,1.64,1.64v11.27c0,4,2.19,6.56,6,6.56a6.42,6.42,0,0,0,6.52-6.81v-11a1.57,1.57,0,0,1,1.59-1.64,1.6,1.6,0,0,1,1.6,1.64Z"/><path class="cls-1" d="M244.52,343.21c-6,0-10.85-4.58-10.85-11.31v-.09c0-6.27,4.41-11.31,10.43-11.31,6.44,0,10.1,5.25,10.1,11a1.51,1.51,0,0,1-1.52,1.51H237c.46,4.71,3.78,7.36,7.66,7.36a8.88,8.88,0,0,0,6.26-2.52,1.45,1.45,0,0,1,.93-.38,1.41,1.41,0,0,1,1.43,1.39,1.38,1.38,0,0,1-.51,1.05A11,11,0,0,1,244.52,343.21ZM251,330.63c-.34-3.95-2.61-7.4-6.94-7.4-3.79,0-6.65,3.15-7.07,7.4Z"/><path class="cls-1" d="M270.82,336.94V323.82h-1.77a1.47,1.47,0,0,1-1.43-1.43,1.44,1.44,0,0,1,1.43-1.43h1.77v-5.13a1.61,1.61,0,0,1,1.6-1.65,1.68,1.68,0,0,1,1.64,1.65V321h5.63a1.49,1.49,0,0,1,1.48,1.43,1.46,1.46,0,0,1-1.48,1.43h-5.63v12.7c0,2.65,1.47,3.62,3.66,3.62a9.23,9.23,0,0,0,2-.29,1.4,1.4,0,0,1,1.39,1.38,1.37,1.37,0,0,1-.92,1.27,8.19,8.19,0,0,1-3.2.59C273.47,343.09,270.82,341.36,270.82,336.94Z"/><path class="cls-1" d="M283.9,331.94v-.09a11.34,11.34,0,0,1,22.68-.08v.08a11.29,11.29,0,0,1-11.4,11.36A11.14,11.14,0,0,1,283.9,331.94Zm19.35,0v-.09a8.22,8.22,0,0,0-8.07-8.49c-4.72,0-8,3.82-8,8.41v.08a8.16,8.16,0,0,0,8,8.46C300,340.31,303.25,336.52,303.25,331.94Z"/><path class="cls-1" d="M331.69,341.28a1.62,1.62,0,1,1-3.24,0v-2.95c-1.76,2.61-4.33,4.84-8.33,4.84-5.21,0-10.39-4.12-10.39-11.27v-.09c0-7.11,5.18-11.31,10.39-11.31a9.8,9.8,0,0,1,8.33,4.62V313.43a1.58,1.58,0,0,1,1.6-1.64,1.61,1.61,0,0,1,1.64,1.64Zm-18.63-9.51v.08c0,5.14,3.57,8.42,7.65,8.42a8.13,8.13,0,0,0,7.87-8.42v-.08a8.08,8.08,0,0,0-7.87-8.37C316.51,323.4,313.06,326.51,313.06,331.77Z"/><path class="cls-1" d="M336.16,331.94v-.09a11.34,11.34,0,0,1,22.67-.08v.08a11.29,11.29,0,0,1-11.4,11.36A11.14,11.14,0,0,1,336.16,331.94Zm19.35,0v-.09a8.22,8.22,0,0,0-8.08-8.49c-4.71,0-7.95,3.82-7.95,8.41v.08a8.16,8.16,0,0,0,8,8.46C352.23,340.31,355.51,336.52,355.51,331.94Z"/><path class="cls-1" d="M373.26,340.39a1.47,1.47,0,0,1-.59-1.17,1.42,1.42,0,0,1,1.43-1.39,1.27,1.27,0,0,1,.8.25,12.27,12.27,0,0,0,6.9,2.31c2.61,0,4.5-1.34,4.5-3.45v-.08c0-2.19-2.56-3-5.42-3.83-3.41-1-7.2-2.14-7.2-6.14v-.09c0-3.74,3.12-6.22,7.41-6.22a15.1,15.1,0,0,1,6.94,1.85,1.58,1.58,0,0,1,.8,1.35,1.41,1.41,0,0,1-1.43,1.38,1.71,1.71,0,0,1-.72-.16,11.7,11.7,0,0,0-5.68-1.69c-2.56,0-4.2,1.35-4.2,3.16v.08c0,2.06,2.69,2.86,5.59,3.75,3.37,1,7,2.31,7,6.22v.09c0,4.12-3.4,6.52-7.74,6.52A15,15,0,0,1,373.26,340.39Z"/><path class="cls-1" d="M403.47,343.21c-6,0-10.85-4.58-10.85-11.31v-.09c0-6.27,4.41-11.31,10.43-11.31,6.44,0,10.1,5.25,10.1,11a1.51,1.51,0,0,1-1.52,1.51H395.9c.46,4.71,3.78,7.36,7.65,7.36a8.89,8.89,0,0,0,6.27-2.52,1.45,1.45,0,0,1,.93-.38,1.41,1.41,0,0,1,1.43,1.39,1.38,1.38,0,0,1-.51,1.05A11,11,0,0,1,403.47,343.21Zm6.44-12.58c-.34-3.95-2.61-7.4-7-7.4-3.78,0-6.64,3.15-7.06,7.4Z"/><path class="cls-1" d="M415.8,336.4v-.09c0-4.58,3.78-7,9.3-7a23.29,23.29,0,0,1,6.68.92v-.75c0-3.92-2.39-5.94-6.47-5.94a13.67,13.67,0,0,0-5.64,1.22,1.54,1.54,0,0,1-.59.13,1.44,1.44,0,0,1-1.43-1.39,1.47,1.47,0,0,1,.88-1.34,17.12,17.12,0,0,1,7.11-1.48c3.07,0,5.43.8,7,2.4a8.6,8.6,0,0,1,2.23,6.35v11.91a1.55,1.55,0,0,1-1.56,1.6,1.5,1.5,0,0,1-1.56-1.52v-2a9.53,9.53,0,0,1-7.86,3.74C419.88,343.17,415.8,340.86,415.8,336.4Zm16-1.69v-2.1a22.87,22.87,0,0,0-6.4-.92c-4.08,0-6.35,1.76-6.35,4.5v.08c0,2.74,2.52,4.33,5.47,4.33C428.54,340.6,431.83,338.16,431.83,334.71Z"/><path class="cls-1" d="M70.76,374.8v-.08a11.31,11.31,0,0,1,19.14-8.21,1.5,1.5,0,0,1,.51,1.14,1.56,1.56,0,0,1-1.56,1.56,1.67,1.67,0,0,1-1-.38,8.39,8.39,0,0,0-5.93-2.61c-4.42,0-7.78,3.74-7.78,8.41v.09a8.12,8.12,0,0,0,8,8.45,8.68,8.68,0,0,0,6.06-2.65,1.27,1.27,0,0,1,.92-.42,1.52,1.52,0,0,1,1.47,1.47,1.43,1.43,0,0,1-.42,1,10.94,10.94,0,0,1-8.2,3.49A11.17,11.17,0,0,1,70.76,374.8Z"/><path class="cls-1" d="M93.36,374.8v-.08a11.34,11.34,0,0,1,22.67-.09v.09a11.29,11.29,0,0,1-11.4,11.35A11.14,11.14,0,0,1,93.36,374.8Zm19.35,0v-.08a8.23,8.23,0,0,0-8.08-8.5c-4.71,0-7.95,3.83-7.95,8.41v.09a8.15,8.15,0,0,0,8,8.45C109.43,383.17,112.71,379.39,112.71,374.8Z"/><path class="cls-1" d="M120.45,365.25a1.64,1.64,0,0,1,1.6-1.64,1.62,1.62,0,0,1,1.64,1.64v2.23c1.43-2.15,3.37-4.12,7-4.12a7.39,7.39,0,0,1,7,4.33,8.67,8.67,0,0,1,7.66-4.33c5,0,8.07,3.36,8.07,8.75v12a1.62,1.62,0,1,1-3.24,0V372.86c0-4.2-2.1-6.56-5.63-6.56-3.29,0-6,2.44-6,6.73v11.11a1.62,1.62,0,1,1-3.24,0V372.78c0-4.08-2.14-6.48-5.59-6.48s-6.06,2.86-6.06,6.86v11a1.58,1.58,0,0,1-1.6,1.64,1.62,1.62,0,0,1-1.64-1.64Z"/><path class="cls-1" d="M157.68,374.8v-.08a11.34,11.34,0,0,1,22.68-.09v.09A11.29,11.29,0,0,1,169,386.07,11.14,11.14,0,0,1,157.68,374.8Zm19.36,0v-.08a8.24,8.24,0,0,0-8.08-8.5c-4.71,0-8,3.83-8,8.41v.09a8.15,8.15,0,0,0,8,8.45C173.75,383.17,177,379.39,177,374.8Z"/><path class="cls-1" d="M196.26,356.29a1.62,1.62,0,1,1,3.24,0v27.85a1.58,1.58,0,0,1-1.59,1.64,1.62,1.62,0,0,1-1.65-1.64Z"/><path class="cls-1" d="M204.26,374.8v-.08a11.34,11.34,0,0,1,22.67-.09v.09a11.28,11.28,0,0,1-11.4,11.35A11.14,11.14,0,0,1,204.26,374.8Zm19.35,0v-.08a8.23,8.23,0,0,0-8.08-8.5c-4.71,0-7.95,3.83-7.95,8.41v.09a8.16,8.16,0,0,0,8,8.45C220.33,383.17,223.61,379.39,223.61,374.8Z"/><path class="cls-1" d="M241.28,383.34a2,2,0,0,1-1-1.77,2,2,0,0,1,2.06-2.06,2.22,2.22,0,0,1,1.1.3,11.69,11.69,0,0,0,6.39,2.14c2.19,0,3.45-.92,3.45-2.4v-.08c0-1.73-2.35-2.31-5-3.11-3.28-.93-6.94-2.27-6.94-6.52v-.09c0-4.2,3.49-6.77,7.91-6.77a15.24,15.24,0,0,1,7,1.81,2.15,2.15,0,0,1,1.22,1.93,2,2,0,0,1-2.1,2.06,2,2,0,0,1-1-.25,12.19,12.19,0,0,0-5.22-1.51c-2,0-3.11.92-3.11,2.19v.08c0,1.64,2.4,2.31,5,3.15,3.24,1,6.9,2.49,6.9,6.48V379c0,4.67-3.61,7-8.24,7A15.18,15.18,0,0,1,241.28,383.34Z"/><path class="cls-1" d="M260.55,374.59v-.08a11.85,11.85,0,0,1,23.69-.09v.09a11.61,11.61,0,0,1-11.91,11.56A11.49,11.49,0,0,1,260.55,374.59Zm18.6,0v-.08a6.87,6.87,0,0,0-6.82-7.16c-4.08,0-6.69,3.2-6.69,7.07v.09a6.85,6.85,0,0,0,6.77,7.11C276.54,381.62,279.15,378.42,279.15,374.59Z"/><path class="cls-1" d="M288,365.67a2.55,2.55,0,1,1,5.09,0v1.09a8.05,8.05,0,0,1,6.94-3.87c5,0,7.91,3.37,7.91,8.5v11.87a2.47,2.47,0,0,1-2.52,2.52,2.51,2.51,0,0,1-2.57-2.52V373c0-3.45-1.72-5.43-4.75-5.43s-5,2.06-5,5.51v10.23a2.55,2.55,0,0,1-5.09,0Zm4-4.63a1.53,1.53,0,0,1-1.56-1.38,3.88,3.88,0,0,1,.17-1c.88-2.44,2.06-3.83,4.29-3.83s4.54,1.68,6.06,1.68c1,0,1.43-.42,1.93-1.34a1.65,1.65,0,0,1,1.39-.85,1.54,1.54,0,0,1,1.56,1.39,4.4,4.4,0,0,1-.17,1c-.88,2.44-2.06,3.83-4.29,3.83s-4.55-1.68-6.06-1.68c-1,0-1.43.42-1.93,1.34A1.59,1.59,0,0,1,291.94,361Z"/><path class="cls-1" d="M311.16,379.17v-.08c0-4.79,3.75-7.15,9.17-7.15a18.79,18.79,0,0,1,6,.92v-.54c0-3.16-1.94-4.84-5.51-4.84a13.27,13.27,0,0,0-4.92.88,2.72,2.72,0,0,1-.8.13,2.12,2.12,0,0,1-2.15-2.1,2.21,2.21,0,0,1,1.39-2,19,19,0,0,1,7.15-1.31c3.32,0,5.81.89,7.36,2.49s2.4,3.95,2.4,6.85v10.94a2.42,2.42,0,0,1-2.48,2.44,2.3,2.3,0,0,1-2.48-2.15v-.84A9,9,0,0,1,319,386C314.87,386,311.16,383.63,311.16,379.17Zm15.23-1.59v-1.52a14.21,14.21,0,0,0-5.05-.88c-3.28,0-5.21,1.39-5.21,3.7V379c0,2.14,1.89,3.36,4.33,3.36C323.83,382.33,326.39,380.39,326.39,377.58Z"/><path class="cls-1" d="M335.9,365.67a2.55,2.55,0,1,1,5.09,0v1.05c1.43-2,3.37-3.83,6.78-3.83a7,7,0,0,1,6.64,3.92,9,9,0,0,1,7.49-3.92c4.84,0,7.78,3.08,7.78,8.5v11.87a2.47,2.47,0,0,1-2.52,2.52,2.51,2.51,0,0,1-2.57-2.52V373c0-3.53-1.64-5.43-4.5-5.43s-4.75,1.94-4.75,5.51v10.23a2.55,2.55,0,0,1-5.09,0V372.91c0-3.45-1.68-5.39-4.5-5.39S341,369.63,341,373v10.23a2.55,2.55,0,0,1-5.09,0Z"/><path class="cls-1" d="M373.22,374.59v-.08a11.85,11.85,0,0,1,23.69-.09v.09A11.61,11.61,0,0,1,385,386.07,11.49,11.49,0,0,1,373.22,374.59Zm18.6,0v-.08a6.87,6.87,0,0,0-6.82-7.16c-4.08,0-6.69,3.2-6.69,7.07v.09a6.85,6.85,0,0,0,6.77,7.11C389.21,381.62,391.82,378.42,391.82,374.59Z"/><path class="cls-1" d="M399.81,383.34a2,2,0,0,1-1-1.77,2,2,0,0,1,2.07-2.06,2.21,2.21,0,0,1,1.09.3,11.69,11.69,0,0,0,6.39,2.14c2.19,0,3.45-.92,3.45-2.4v-.08c0-1.73-2.35-2.31-5-3.11-3.28-.93-6.94-2.27-6.94-6.52v-.09c0-4.2,3.49-6.77,7.91-6.77a15.24,15.24,0,0,1,7,1.81,2.15,2.15,0,0,1,1.22,1.93,2,2,0,0,1-2.1,2.06,2,2,0,0,1-1-.25,12.19,12.19,0,0,0-5.22-1.51c-2,0-3.11.92-3.11,2.19v.08c0,1.64,2.4,2.31,5,3.15,3.24,1,6.9,2.49,6.9,6.48V379c0,4.67-3.61,7-8.24,7A15.18,15.18,0,0,1,399.81,383.34Z"/><path class="cls-1" d="M422.28,380.94a1.92,1.92,0,0,1,2,2v.84a2,2,0,1,1-4,0v-.84A1.93,1.93,0,0,1,422.28,380.94Z"/><path class="cls-2" d="M51.61,109.37c23.92-12.5,23.12-36.1,32.45-54.86,21-42.16,74.13-61,126-23C231.34,47.06,265,19.2,290.81,9.67,381.14-23.69,401.91,38.15,396.32,61c-13.34,54.58,78,21.5,100.89,96.39,8.65,28.28,4,62.67-23.37,85.79-48.12,40.72-121,26.34-141.61,25.08-28-1.71-80.6,4.64-128,21.13-17,5.89-72.11,36.31-110.76-9.49-10.59-12.55-9-33.47-30.57-42.72C41.12,227.85,14.35,227,2.07,187.53-8.43,153.78,23,124.32,51.61,109.37Z"/><path class="cls-3" d="M198.43,83.83a5.37,5.37,0,1,1,10.74,0v34.08H229a4.88,4.88,0,0,1,0,9.76H203.8a5.33,5.33,0,0,1-5.37-5.37Z"/><path class="cls-3" d="M241.3,122.3v-38a5.32,5.32,0,0,1,5.36-5.37h27a4.82,4.82,0,0,1,4.81,4.81,4.76,4.76,0,0,1-4.81,4.74H252v9.9h18.61a4.82,4.82,0,0,1,4.81,4.8,4.76,4.76,0,0,1-4.81,4.74H252v10.25h22.09a4.82,4.82,0,0,1,4.81,4.81,4.76,4.76,0,0,1-4.81,4.74H246.66A5.32,5.32,0,0,1,241.3,122.3Z"/><path class="cls-3" d="M300.47,108.85l-15.75-21.4a6.33,6.33,0,0,1-1.33-3.83,5.24,5.24,0,0,1,5.37-5.16c2.44,0,4,1.33,5.3,3.28L305.9,98.81,318,81.6c1.33-1.95,2.93-3.21,5.16-3.21a5,5,0,0,1,5.23,5.23,6.63,6.63,0,0,1-1.4,3.76L311.2,108.64v14.08a5.37,5.37,0,0,1-10.73,0Z"/><path class="cls-1" d="M76.54,145.52a6.32,6.32,0,0,1,6.37-6.37h1.41a6.55,6.55,0,0,1,5.79,3.31l15.39,25.07L121,142.38a6.23,6.23,0,0,1,5.7-3.23h1.41a6.32,6.32,0,0,1,6.37,6.37v46a6.33,6.33,0,1,1-12.66,0V162.65l-11.16,17.2c-1.33,2-3,3.23-5.3,3.23s-4-1.24-5.29-3.23l-11-17v28.79a6.21,6.21,0,0,1-6.28,6.2,6.14,6.14,0,0,1-6.21-6.2Z"/><path class="cls-1" d="M146.7,145.36a6.37,6.37,0,1,1,12.74,0v46.15a6.37,6.37,0,0,1-12.74,0Z"/><path class="cls-1" d="M169.12,168.6v-.16c0-16.47,12.41-29.95,30.2-29.95,8.68,0,14.56,2.31,19.35,5.87a6.38,6.38,0,0,1,2.48,5,6.21,6.21,0,0,1-6.28,6.2,6.69,6.69,0,0,1-3.81-1.24,19,19,0,0,0-11.83-4.13c-9.76,0-16.79,8.1-16.79,18v.17c0,9.92,6.86,18.19,16.79,18.19a18.62,18.62,0,0,0,12.58-4.54,5.92,5.92,0,0,1,9.76,4.46,6,6,0,0,1-2.15,4.55c-5.21,4.55-11.34,7.28-20.6,7.28C181.78,198.38,169.12,185.23,169.12,168.6Z"/><path class="cls-1" d="M227.28,189.2l20.19-45.58a7.87,7.87,0,0,1,7.44-5.05h.75c3.47,0,6,1.9,7.36,5.05L283.2,189.2a6.14,6.14,0,0,1,.67,2.56,6,6,0,0,1-6,6.12c-3,0-5-1.73-6.12-4.38l-3.89-9.1H242.34l-4.05,9.51a6.25,6.25,0,0,1-5.88,4,5.85,5.85,0,0,1-5.87-5.95A6.81,6.81,0,0,1,227.28,189.2Zm35.82-16-8-19.11-8,19.11Z"/><path class="cls-1" d="M291.65,191V145.85a6.32,6.32,0,0,1,6.37-6.37h32.09a5.72,5.72,0,0,1,5.71,5.71,5.65,5.65,0,0,1-5.71,5.63h-25.8v11.74h22.08a5.73,5.73,0,0,1,5.71,5.71,5.65,5.65,0,0,1-5.71,5.62H304.31v12.17h26.22a5.72,5.72,0,0,1,5.71,5.7,5.65,5.65,0,0,1-5.71,5.63H298A6.32,6.32,0,0,1,291.65,191Z"/><path class="cls-1" d="M344.85,145.36a6.37,6.37,0,1,1,12.74,0v40.45h23.57a5.79,5.79,0,0,1,0,11.58H351.22a6.32,6.32,0,0,1-6.37-6.37Z"/><path class="cls-1" d="M390.6,189.2l20.18-45.58a7.87,7.87,0,0,1,7.45-5.05H419c3.48,0,6,1.9,7.37,5.05l20.18,45.58a6.27,6.27,0,0,1,.66,2.56,6,6,0,0,1-6,6.12c-3,0-5-1.73-6.12-4.38l-3.89-9.1H405.65l-4,9.51a6.25,6.25,0,0,1-5.87,4,5.86,5.86,0,0,1-5.88-5.95A6.83,6.83,0,0,1,390.6,189.2Zm35.82-16-8-19.11-8,19.11Z"/><circle class="cls-4" cx="152.9" cy="121.09" r="8.92"/></g></g></svg>