<?xml version="1.0" encoding="UTF-8"?><svg id="a" xmlns="http://www.w3.org/2000/svg" viewBox="0 0 1000 1000"><defs><style>.b{fill:#e9dcff;}.c{fill:#5a1372;}</style></defs><circle class="b" cx="500" cy="500" r="404"/><path class="c" d="M500,922.73c-57.06,0-112.42-11.18-164.55-33.23-50.34-21.29-95.55-51.77-134.36-90.59-38.82-38.82-69.29-84.02-90.59-134.36-22.05-52.13-33.23-107.49-33.23-164.55s11.18-112.42,33.23-164.55c21.29-50.34,51.77-95.55,90.59-134.36,38.82-38.82,84.02-69.29,134.36-90.59,52.13-22.05,107.49-33.23,164.55-33.23s112.42,11.18,164.55,33.23c50.34,21.29,95.55,51.77,134.36,90.59,38.82,38.82,69.29,84.02,90.59,134.36,22.05,52.13,33.23,107.49,33.23,164.55s-11.18,112.42-33.23,164.55c-21.29,50.34-51.77,95.55-90.59,134.36-38.82,38.82-84.02,69.29-134.36,90.59-52.13,22.05-107.49,33.23-164.55,33.23Zm0-808c-52.02,0-102.47,10.18-149.96,30.27-45.88,19.4-87.08,47.19-122.47,82.57-35.39,35.39-63.17,76.59-82.57,122.47-20.08,47.49-30.27,97.94-30.27,149.96s10.18,102.47,30.27,149.96c19.4,45.88,47.19,87.08,82.57,122.47s76.59,63.17,122.47,82.57c47.49,20.08,97.94,30.27,149.96,30.27s102.47-10.18,149.96-30.27c45.88-19.4,87.08-47.19,122.47-82.57s63.17-76.59,82.57-122.47c20.08-47.49,30.27-97.94,30.27-149.96s-10.18-102.47-30.27-149.96c-19.4-45.88-47.19-87.08-82.57-122.47-35.39-35.39-76.59-63.17-122.47-82.57-47.49-20.08-97.94-30.27-149.96-30.27Z"/><g><g><ellipse class="c" cx="354.25" cy="371" rx="31.5" ry="53"/><path class="c" d="M354.25,433.5c-22.99,0-41-27.45-41-62.5s18.01-62.5,41-62.5,41,27.45,41,62.5-18.01,62.5-41,62.5Zm0-106c-10.41,0-22,17.86-22,43.5s11.59,43.5,22,43.5,22-17.86,22-43.5-11.59-43.5-22-43.5Z"/></g><g><ellipse class="c" cx="645.75" cy="371" rx="31.5" ry="53"/><path class="c" d="M645.75,433.5c-22.99,0-41-27.45-41-62.5s18.01-62.5,41-62.5,41,27.45,41,62.5-18.01,62.5-41,62.5Zm0-106c-10.41,0-22,17.86-22,43.5s11.59,43.5,22,43.5,22-17.86,22-43.5-11.59-43.5-22-43.5Z"/></g></g><g><ellipse class="c" cx="500" cy="683" rx="104.5" ry="135.5"/><path class="c" d="M500,828c-30.92,0-59.84-15.41-81.42-43.38-21.01-27.25-32.58-63.33-32.58-101.62s11.57-74.37,32.58-101.62c21.58-27.98,50.49-43.38,81.42-43.38s59.84,15.41,81.42,43.38c21.01,27.25,32.58,63.33,32.58,101.62s-11.57,74.37-32.58,101.62c-21.58,27.98-50.49,43.38-81.42,43.38Zm0-271c-52.38,0-95,56.52-95,126s42.62,126,95,126,95-56.52,95-126-42.62-126-95-126Z"/></g><g><g><path class="b" d="M153.78,907c-4.99,0-9.66-2.49-12.45-6.63-2.79-4.14-3.33-9.4-1.45-14.03,.09-.23,9.68-23.92,16.53-50.19,9.74-37.34,7.02-53.68,3.88-57.44-17.81-21.37-42.92-80.06-58.42-136.53-14.28-52.05-26.41-122.04-3.06-159.94,13.4-21.76,32.32-33.74,53.27-33.74,22.7,0,44.85,13.79,62.37,38.82,17.43,24.91,28.8,58.73,32.86,97.79,6.46,62.11,38.05,107.41,65.93,147.38,20.27,29.07,37.77,54.17,41.04,80.3,7.99,63.88-34.98,90.89-36.81,92.01-2.35,1.44-5.06,2.2-7.81,2.2H153.78Z"/><path class="c" d="M152.09,463.5c34.55,0,72.22,45.4,80.31,123.16,11.59,111.46,100.13,172.99,107,227.99,6.88,55-29.74,77.34-29.74,77.34H153.78s39.53-97.11,18.05-122.89c-30.76-36.91-97.11-219.14-60.23-279,11.15-18.1,25.53-26.61,40.5-26.61m0-30c-26.35,0-49.8,14.52-66.04,40.87-12.05,19.56-16.91,46.09-14.88,81.13,1.54,26.48,7,56.98,16.25,90.65,7.79,28.4,18.19,58.25,29.27,84.05,7.68,17.88,19.19,41.96,30.95,56.72,.65,2.9,2.45,16.12-7.15,50.67-6.41,23.09-14.43,42.91-14.51,43.11-3.75,9.25-2.67,19.77,2.91,28.05,5.57,8.28,14.9,13.25,24.88,13.25h155.88c5.51,0,10.92-1.52,15.63-4.39,2.48-1.51,15.4-9.91,26.8-27.03,10.39-15.6,21.78-42.09,17.09-79.64-3.73-29.81-22.21-56.32-43.62-87.02-26.84-38.48-57.25-82.1-63.31-140.36-4.33-41.6-16.6-77.85-35.49-104.84-9.54-13.62-20.46-24.44-32.46-32.15-13.31-8.55-27.9-13.07-42.2-13.07h0Z"/></g><g><path class="b" d="M690.33,907c-2.76,0-5.46-.76-7.81-2.2-1.83-1.12-44.8-28.13-36.81-92.01,3.27-26.13,20.77-51.23,41.04-80.3,27.88-39.97,59.47-85.28,65.93-147.38,4.06-39.07,15.42-72.88,32.86-97.79,17.52-25.03,39.67-38.82,62.37-38.82,20.95,0,39.87,11.98,53.27,33.74,23.35,37.9,11.22,107.9-3.06,159.94-15.5,56.46-40.61,115.16-58.42,136.53-3.14,3.77-5.86,20.11,3.88,57.44,6.85,26.27,16.44,49.96,16.53,50.19,1.88,4.62,1.34,9.88-1.45,14.03s-7.45,6.63-12.44,6.63h-155.88Z"/><path class="c" d="M847.91,463.5c14.97,0,29.35,8.51,40.5,26.61,36.88,59.86-29.48,242.09-60.23,279-21.48,25.78,18.05,122.89,18.05,122.89h-155.88s-36.62-22.34-29.74-77.34c6.88-55,95.41-116.53,107-227.99,8.09-77.77,45.75-123.16,80.31-123.16m0-30v0c-14.31,0-28.91,4.52-42.21,13.07-12,7.71-22.92,18.52-32.45,32.15-18.89,26.99-31.17,63.25-35.49,104.84-6.06,58.25-36.48,101.87-63.31,140.36-21.41,30.7-39.89,57.21-43.62,87.02-4.69,37.56,6.7,64.04,17.09,79.64,11.4,17.12,24.32,25.52,26.8,27.03,4.71,2.87,10.11,4.39,15.63,4.39h155.88c9.99,0,19.32-4.97,24.89-13.26,5.57-8.29,6.66-18.8,2.89-28.05-.07-.18-8.09-20.01-14.5-43.09-9.6-34.56-7.8-47.78-7.15-50.67,11.77-14.75,23.27-38.84,30.95-56.72,11.08-25.8,21.48-55.65,29.27-84.05,9.24-33.67,14.71-64.17,16.25-90.65,2.04-35.04-2.83-61.58-14.88-81.13-16.24-26.36-39.69-40.87-66.03-40.87h0Z"/></g></g></svg>