<?xml version="1.0" encoding="UTF-8"?><svg id="a" xmlns="http://www.w3.org/2000/svg" viewBox="0 0 1000 1000"><defs><style>.b{fill:#fa405c;}.c{fill:#e9dcff;}.d{fill:#5a1372;}</style></defs><circle class="c" cx="513.12" cy="523.35" r="404"/><path class="d" d="M513.12,946.08c-57.06,0-112.42-11.18-164.55-33.23-50.34-21.29-95.55-51.77-134.36-90.59s-69.29-84.02-90.59-134.36c-22.05-52.13-33.23-107.49-33.23-164.55s11.18-112.42,33.23-164.55c21.29-50.34,51.77-95.55,90.59-134.36s84.02-69.29,134.36-90.59c52.13-22.05,107.49-33.23,164.55-33.23s112.42,11.18,164.55,33.23c50.34,21.29,95.55,51.77,134.36,90.59s69.29,84.02,90.59,134.36c22.05,52.13,33.23,107.49,33.23,164.55s-11.18,112.42-33.23,164.55c-21.29,50.34-51.77,95.55-90.59,134.36s-84.02,69.29-134.36,90.59c-52.13,22.05-107.49,33.23-164.55,33.23Zm0-808c-52.02,0-102.47,10.18-149.96,30.27-45.88,19.4-87.08,47.19-122.47,82.57-35.39,35.39-63.17,76.59-82.57,122.47-20.08,47.49-30.27,97.94-30.27,149.96s10.18,102.47,30.27,149.96c19.4,45.88,47.19,87.08,82.57,122.47,35.39,35.39,76.59,63.17,122.47,82.57,47.49,20.08,97.94,30.27,149.96,30.27s102.47-10.18,149.96-30.27c45.88-19.4,87.08-47.19,122.47-82.57,35.39-35.39,63.17-76.59,82.57-122.47,20.08-47.49,30.27-97.94,30.27-149.96s-10.18-102.47-30.27-149.96c-19.4-45.88-47.19-87.08-82.57-122.47-35.39-35.39-76.59-63.17-122.47-82.57-47.49-20.08-97.94-30.27-149.96-30.27Z"/><path class="d" d="M446.83,485.52c-7.34,0-14.3-4.34-17.3-11.53-23.51-56.41-49.59-87.61-73.45-87.86-.1,0-.21,0-.31,0-36.16,0-73.11,65.27-83.24,88.2-4.17,9.46-15.23,13.75-24.69,9.59-9.46-4.17-13.76-15.2-9.6-24.67,.48-1.1,12-27.13,31.06-53.37,27.57-37.97,56.66-57.22,86.45-57.22,.22,0,.44,0,.66,0,20.36,.19,39.71,9.48,57.49,27.6,18.12,18.47,34.54,45.72,50.21,83.31,3.98,9.55-.54,20.52-10.08,24.5-2.35,.98-4.8,1.45-7.2,1.45Z"/><path class="d" d="M771.13,485.52c-7.34,0-14.3-4.34-17.3-11.53-23.51-56.41-49.59-87.61-73.45-87.86-.1,0-.21,0-.31,0-36.16,0-73.11,65.27-83.24,88.2-4.17,9.46-15.23,13.75-24.69,9.59-9.46-4.17-13.76-15.2-9.6-24.67,.48-1.1,12-27.13,31.06-53.37,27.78-38.25,57.09-57.46,87.11-57.21,20.36,.19,39.71,9.48,57.49,27.6,18.12,18.47,34.54,45.72,50.21,83.31,3.98,9.55-.54,20.52-10.08,24.5-2.35,.98-4.8,1.45-7.2,1.45Z"/><g><path class="d" d="M694.32,636.19s-82.19,106.76-188.94,106.76-176.23-106.76-176.23-106.76c0,0,81.7,53.6,182.59,53.6s182.59-53.6,182.59-53.6Z"/><path class="d" d="M505.38,761.68c-48.23,0-96.79-20.05-140.44-57.97-32.32-28.09-50.73-56.12-51.5-57.3-4.83-7.43-3.8-17.23,2.48-23.49s16.09-7.25,23.5-2.39c.75,.49,78.54,50.53,172.31,50.53s171.56-50.04,172.33-50.54c7.65-4.99,17.79-3.74,24,2.96,6.2,6.71,6.67,16.9,1.1,24.14-3.59,4.66-89.13,114.06-203.78,114.06Zm-92.43-68.15c30.05,20.38,61.05,30.68,92.43,30.68s62.83-11.27,88.8-26.22c-24.92,6.23-52.85,10.52-82.44,10.52-36.25,0-69.99-6.44-98.79-14.99Z"/></g><g><path class="b" d="M241.57,565.42c-57.22-43.94-90.47,52.78-90.47,52.78,0,0-91.41-48.86-101.23,14.77-15.14,98.07,148.54,126.55,148.54,126.55,0,0,100.38-150.17,43.15-194.1Z"/><path class="d" d="M198.41,775.21c-.89,0-1.79-.08-2.69-.23-1.76-.31-43.63-7.74-84.24-27.9-73.01-36.25-82.23-83.36-77.12-116.49,3.68-23.84,16.67-34.95,26.92-40.07,25.63-12.8,61.21-1.87,81.63,6.59,8.99-18.92,26.93-48.31,54.43-56.59,12.3-3.7,31.62-4.54,53.78,12.47h0c17.47,13.41,25.38,34.39,23.49,62.36-1.32,19.64-7.61,43.07-18.69,69.65-18.32,43.94-43.41,81.67-44.47,83.26-2.94,4.4-7.86,6.97-13.04,6.97Zm-109.49-159.25c-5.52,0-10.14,.87-13.64,2.62-3.41,1.71-8.15,5.31-9.92,16.78-5.1,33.01,14.94,61.06,59.55,83.35,25.35,12.67,52.02,19.93,66.1,23.22,8.27-13.38,24.01-40.27,36.11-69.38,11.58-27.87,27.63-77.24,4.89-94.69h0c-14.04-10.78-22.74-8.18-25.6-7.32-20.2,6.05-36.41,41.01-40.49,52.79-1.5,4.33-4.83,7.8-9.11,9.47-4.27,1.67-9.07,1.4-13.11-.76-.11-.06-12.57-6.64-28.03-11.37-10.23-3.13-19.32-4.71-26.75-4.71Z"/></g><g><path class="b" d="M831.91,170.78c-8.65-71.62-101.01-27.69-101.01-27.69,0,0-29.06-99.49-81.39-61.98-80.65,57.81,13.54,194.67,13.54,194.67,0,0,177.52-33.38,168.86-105Z"/><path class="d" d="M663.05,291.46c-5.1,0-9.96-2.49-12.92-6.79-1.01-1.47-25-36.59-39.01-79.7-25.19-77.52,2-117.08,29.25-136.61,19.61-14.05,36.63-12.55,47.46-8.81,27.08,9.35,44.17,42.42,52.41,62.93,19.8-6.82,53.36-14.57,78.52-.72,11.25,6.2,25.37,19.41,28.73,47.14h0c2.64,21.87-6.81,42.2-28.11,60.42-14.95,12.8-36.09,24.7-62.83,35.38-44.21,17.66-88.72,26.14-90.6,26.49-.97,.18-1.94,.27-2.9,.27Zm9.61-203.13c-3.45,0-8.02,1.22-14.01,5.52-27.15,19.46-33.17,53.4-17.88,100.87,8.69,26.98,22.16,51.11,29.67,63.46,15.35-3.46,45.57-11.03,74.83-22.75,28.02-11.23,74.51-34.31,71.07-62.77h0c-2.13-17.6-10.1-21.98-12.71-23.43-8.58-4.72-22.81-5.03-40.08-.85-14.36,3.47-25.8,8.82-25.91,8.87-4.15,1.97-8.96,2.03-13.15,.15s-7.35-5.5-8.64-9.91c-.03-.12-4.05-13.63-11.49-27.98-8.58-16.56-18.09-27.33-26.77-30.31-1.32-.45-2.94-.86-4.92-.86Z"/></g><g><path class="b" d="M943.74,722.23c-40.84-59.47-102.35,22.24-102.35,22.24,0,0-71.83-74.72-100.84-17.24-44.71,88.59,102.16,166.27,102.16,166.27,0,0,141.87-111.79,101.03-171.26Z"/><path class="d" d="M842.7,909.17c-2.51,0-5.02-.6-7.33-1.82-1.58-.84-39.1-20.85-71.49-52.57-58.23-57.04-52.44-104.69-37.34-134.62,10.87-21.53,26.65-28.08,37.98-29.79,28.33-4.26,58.79,17.14,75.59,31.5,14.39-15.21,40.56-37.61,69.26-37,12.84,.28,31.48,5.45,47.29,28.48h0c12.47,18.16,13.5,40.55,3.07,66.56-7.33,18.27-20.55,38.61-39.3,60.46-31,36.13-66.53,64.26-68.03,65.44-2.82,2.23-6.26,3.36-9.71,3.36Zm-70.49-188c-1.06,0-2.07,.07-3.04,.22-3.77,.57-9.39,2.53-14.62,12.9-15.11,29.94-4.59,62.94,31.29,98.08,20.18,19.76,43,34.71,55.26,42.11,12-10.17,35.28-30.88,55.79-54.83,19.63-22.93,50.15-64.92,33.92-88.54h0c-10.02-14.59-19.1-14.8-22.08-14.87-21.12-.46-47.3,27.75-54.83,37.69-2.77,3.66-7.01,5.93-11.59,6.2-4.58,.27-9.05-1.47-12.23-4.78-.09-.09-9.9-10.2-23.14-19.48-13.65-9.56-25.82-14.69-34.73-14.69Z"/></g></svg>