<?xml version="1.0" encoding="UTF-8"?><svg id="a" xmlns="http://www.w3.org/2000/svg" viewBox="0 0 1000 1000"><defs><style>.b{fill:#e9e4f4;}.c{fill:#e9dcff;}.d{fill:#5a1372;}</style></defs><circle class="c" cx="500" cy="500" r="404"/><path class="d" d="M500,922.73c-57.06,0-112.42-11.18-164.55-33.23-50.34-21.29-95.55-51.77-134.36-90.59-38.82-38.82-69.29-84.02-90.59-134.36-22.05-52.13-33.23-107.49-33.23-164.55s11.18-112.42,33.23-164.55c21.29-50.34,51.77-95.55,90.59-134.36,38.82-38.82,84.02-69.29,134.36-90.59,52.13-22.05,107.49-33.23,164.55-33.23s112.42,11.18,164.55,33.23c50.34,21.29,95.55,51.77,134.36,90.59,38.82,38.82,69.29,84.02,90.59,134.36,22.05,52.13,33.23,107.49,33.23,164.55s-11.18,112.42-33.23,164.55c-21.29,50.34-51.77,95.55-90.59,134.36-38.82,38.82-84.02,69.29-134.36,90.59-52.13,22.05-107.49,33.23-164.55,33.23Zm0-808c-52.02,0-102.47,10.18-149.96,30.27-45.88,19.4-87.08,47.19-122.47,82.57-35.39,35.39-63.17,76.59-82.57,122.47-20.08,47.49-30.27,97.94-30.27,149.96s10.18,102.47,30.27,149.96c19.4,45.88,47.19,87.08,82.57,122.47,35.39,35.39,76.59,63.17,122.47,82.57,47.49,20.08,97.94,30.27,149.96,30.27s102.47-10.18,149.96-30.27c45.88-19.4,87.08-47.19,122.47-82.57,35.39-35.39,63.17-76.59,82.57-122.47,20.08-47.49,30.27-97.94,30.27-149.96s-10.18-102.47-30.27-149.96c-19.4-45.88-47.19-87.08-82.57-122.47-35.39-35.39-76.59-63.17-122.47-82.57-47.49-20.08-97.94-30.27-149.96-30.27Z"/><g><path class="d" d="M305.61,730.18s87.5-157.28,201.16-157.28,187.63,157.28,187.63,157.28c0,0-88.08-38.68-195.5-38.68s-193.28,38.68-193.28,38.68Z"/><path class="d" d="M694.39,753.64c-3.18,0-6.39-.65-9.43-1.98-.82-.36-85.22-36.7-186.07-36.7s-182.86,36.26-183.67,36.62c-9.22,4.13-20.06,1.89-26.89-5.55-6.83-7.45-8.13-18.42-3.22-27.25,3.85-6.91,95.65-169.34,221.66-169.34s205.58,163.79,208.86,170.76c4.16,8.85,2.4,19.35-4.43,26.36-4.51,4.63-10.61,7.09-16.81,7.09Zm-195.49-85.6c55.46,0,105.7,9.73,142.56,19.67-5.09-7.13-10.74-14.54-16.91-21.92-48.01-57.39-90.54-69.44-117.77-69.44s-71.67,12.21-125.29,70.37c-5.86,6.36-11.34,12.74-16.4,18.95,35.53-9.2,82.18-17.63,133.82-17.63Z"/></g><g><path class="b" d="M368.61,642.66s59.14-70.25,135.97-70.25,126.82,70.25,126.82,70.25c0,0-58.79-35.27-131.39-35.27s-131.39,35.27-131.39,35.27Z"/><path class="b" d="M368.61,644.66c-.57,0-1.13-.24-1.52-.7-.63-.74-.64-1.84,0-2.58,.15-.18,15.23-17.95,39.54-35.46,22.49-16.2,57.74-35.5,97.96-35.5,22.22,0,56.48,6.17,93.46,35.56,22.07,17.54,34.47,34.8,34.99,35.53,.55,.77,.48,1.82-.16,2.52-.64,.7-1.69,.85-2.5,.36-.58-.35-59.19-34.98-130.36-34.98s-129.78,34.63-130.36,34.98c-.32,.19-.68,.29-1.03,.29Zm131.39-39.27c56.17,0,104.6,21.23,123.72,30.88-5.73-6.71-15.38-17.02-28.27-27.24-19.9-15.79-51.82-34.62-90.88-34.62-58.72,0-107.51,42.17-126.23,60.83,20.37-10.05,67.41-29.85,121.66-29.85Z"/></g><g><g><path class="d" d="M726.59,378s-167.17,36.94-167.17,66.42,167.17,102.19,167.17,102.19c0,0-91.94-77.03-91.94-102.19s91.94-66.42,91.94-66.42Z"/><path class="d" d="M726.58,555.6c-1.2,0-2.42-.24-3.58-.75-.42-.18-42.57-18.56-84.17-40.32-77.9-40.75-88.4-58.31-88.4-70.11,0-10.9,9.62-20.43,31.18-30.89,14.27-6.93,34.04-14.32,58.73-21.95,41.66-12.88,83.88-22.25,84.3-22.35,4.49-.99,9.01,1.58,10.46,5.95,1.45,4.37-.65,9.13-4.85,11.01-.23,.1-22.92,10.32-45.23,23.4-40.94,24-41.42,34.4-41.42,34.83,0,1.22,1.21,13.11,43.19,54.04,22.48,21.92,45.31,41.08,45.54,41.27,3.42,2.87,4.22,7.81,1.87,11.61-1.68,2.72-4.61,4.26-7.64,4.26Zm-158.18-111.11c.24,1.18,4.62,15.5,80.16,54.86,9.45,4.92,18.89,9.66,27.84,14.03-.68-.66-1.37-1.33-2.05-1.99-43.15-42.06-48.68-57.88-48.68-66.97,0-7.67,3.83-19.76,33.31-39.69-3.62,1.06-7.26,2.14-10.91,3.26-73.52,22.48-79.25,35.23-79.65,36.49Zm-.02,.09h0Z"/></g><g><path class="d" d="M273.41,378s167.17,36.94,167.17,66.42c0,29.48-167.17,102.19-167.17,102.19,0,0,91.94-77.03,91.94-102.19,0-25.17-91.94-66.42-91.94-66.42Z"/><path class="d" d="M273.42,555.6c-3.03,0-5.96-1.54-7.64-4.26-2.35-3.8-1.55-8.74,1.87-11.61,.23-.19,23.06-19.35,45.54-41.27,41.98-40.93,43.19-52.82,43.19-54.04,0-.43-.47-10.84-41.42-34.83-22.31-13.07-45-23.3-45.23-23.4-4.2-1.89-6.29-6.64-4.85-11.01,1.45-4.37,5.97-6.94,10.46-5.95,.42,.09,42.64,9.46,84.3,22.35,24.7,7.64,44.46,15.02,58.73,21.95,21.56,10.47,31.18,20,31.18,30.89,0,11.8-10.5,29.36-88.4,70.11-41.6,21.76-83.75,40.14-84.17,40.32-1.16,.5-2.38,.75-3.58,.75Zm67.61-150.86c29.48,19.93,33.31,32.01,33.31,39.69,0,17.3-26.02,44.88-48.68,66.97-.68,.67-1.37,1.33-2.05,1.99,8.97-4.39,18.44-9.14,27.91-14.07,23.65-12.33,42.58-23.36,56.28-32.79,21.35-14.69,23.57-21.1,23.79-22.06-.46-1.39-6.57-14.12-79.64-36.47-3.65-1.12-7.3-2.2-10.91-3.26Zm90.59,39.84h0Z"/></g></g><g><path class="d" d="M546.45,206.6c8.09,17.29,53.86,79.67,117.68,78.37,53.12-1.08,18.08-26.13-1.15-29.39-26-4.41-60.66-27.56-80.8-44.82-17.27-14.8-53.19-41.51-35.72-4.15Z"/><path class="d" d="M453.55,206.6c-8.09,17.29-53.86,79.67-117.68,78.37-53.12-1.08-18.08-26.13,1.15-29.39,26-4.41,60.66-27.56,80.8-44.82,17.27-14.8,53.19-41.51,35.72-4.15Z"/></g></svg>