<?xml version="1.0" encoding="UTF-8"?><svg id="a" xmlns="http://www.w3.org/2000/svg" viewBox="0 0 1000 1000"><defs><style>.b{fill:#e9dcff;}.c{fill:#5a1372;}</style></defs><circle class="b" cx="499.94" cy="500" r="404"/><path class="c" d="M499.94,922.73c-57.06,0-112.42-11.18-164.55-33.23-50.34-21.29-95.55-51.77-134.36-90.59-38.82-38.82-69.29-84.02-90.59-134.36-22.05-52.13-33.23-107.49-33.23-164.55s11.18-112.42,33.23-164.55c21.29-50.34,51.77-95.55,90.59-134.36s84.02-69.29,134.36-90.59c52.13-22.05,107.49-33.23,164.55-33.23s112.42,11.18,164.55,33.23c50.34,21.29,95.55,51.77,134.36,90.59s69.29,84.02,90.59,134.36c22.05,52.13,33.23,107.49,33.23,164.55s-11.18,112.42-33.23,164.55c-21.29,50.34-51.77,95.55-90.59,134.36-38.82,38.82-84.02,69.29-134.36,90.59-52.13,22.05-107.49,33.23-164.55,33.23Zm0-808c-52.02,0-102.47,10.18-149.96,30.27-45.88,19.4-87.08,47.19-122.47,82.57-35.39,35.39-63.17,76.59-82.57,122.47-20.08,47.49-30.27,97.94-30.27,149.96s10.18,102.47,30.27,149.96c19.4,45.88,47.19,87.08,82.57,122.47,35.39,35.39,76.59,63.17,122.47,82.57,47.49,20.08,97.94,30.27,149.96,30.27s102.47-10.18,149.96-30.27c45.88-19.4,87.08-47.19,122.47-82.57,35.39-35.39,63.17-76.59,82.57-122.47,20.08-47.49,30.27-97.94,30.27-149.96s-10.18-102.47-30.27-149.96c-19.4-45.88-47.19-87.08-82.57-122.47-35.39-35.39-76.59-63.17-122.47-82.57-47.49-20.08-97.94-30.27-149.96-30.27Z"/><path class="c" d="M445.76,453.21c-6.82,0-13.4-3.74-16.71-10.23-12.99-25.5-33.49-55.95-57.4-56.25-.12,0-.24,0-.36,0-28.53,0-57.63,41.89-65.61,56.63-4.92,9.09-16.27,12.49-25.37,7.59-9.1-4.9-12.51-16.23-7.62-25.34,.41-.76,10.22-18.89,26.32-37.01,23.2-26.11,47.5-39.34,72.25-39.34,.25,0,.5,0,.75,0,34.25,.37,64.68,26.18,90.42,76.7,4.7,9.22,1.03,20.5-8.19,25.19-2.72,1.39-5.63,2.04-8.49,2.05Z"/><path class="c" d="M710.95,453.21c-6.82,0-13.4-3.74-16.71-10.23-12.99-25.5-33.49-55.95-57.4-56.25-.12,0-.24,0-.36,0-28.53,0-57.63,41.89-65.61,56.63-4.92,9.09-16.27,12.49-25.37,7.59-9.1-4.9-12.51-16.23-7.62-25.34,.41-.76,10.22-18.89,26.32-37.01,23.43-26.37,47.95-39.62,73-39.34,34.25,.37,64.68,26.18,90.42,76.7,4.7,9.22,1.03,20.5-8.19,25.19-2.72,1.39-5.63,2.04-8.49,2.05Z"/><g><path class="c" d="M661.94,570.45s-73.55,95.53-169.08,95.53-157.71-95.53-157.71-95.53c0,0,73.11,47.96,163.39,47.96s163.39-47.96,163.39-47.96Z"/><path class="c" d="M492.86,684.71c-104.49,0-170.64-99.8-173.41-104.05-4.83-7.43-3.8-17.23,2.48-23.49,6.28-6.26,16.09-7.26,23.5-2.39,.67,.43,69.83,44.9,153.12,44.9s152.45-44.46,153.14-44.91c7.65-4.99,17.8-3.74,24,2.97,6.2,6.71,6.67,16.9,1.1,24.14-.81,1.05-20.17,26.02-51.97,51.06-43.02,33.88-88.65,51.78-131.95,51.78Zm-69.86-57.38c20.1,11.55,43.69,19.92,69.86,19.92,23.46,0,45.68-6.66,65.56-16.33-18.62,3.79-38.77,6.22-59.87,6.22-27.17,0-52.78-4.02-75.55-9.81Z"/></g><g><path class="b" d="M710.29,917.59c-46.34,0-79.84-17.59-96.87-50.86-17.82-34.82-15.3-75.36,7.12-114.16,13.96-24.16,30.08-46.3,45.67-67.71,3.1-4.26,6.31-9.32,9.7-14.68,10.06-15.89,21.46-33.9,38.2-43.76,6.54-3.85,12.99-5.8,19.17-5.8,8.82,0,16.59,3.94,21.87,11.08,4.19,5.67,6.58,13.04,7.11,21.89,.68,11.36-.87,21.32-3.48,29.92,2.02-2.87,4.02-5.83,6-8.76,7.32-10.84,14.89-22.06,24.34-30.35,11.86-10.41,30.9-20.91,46.72-20.91,9.17,0,17.03,3.52,22.13,9.9,6.32,7.91,7.86,19.28,4.58,33.8-1.95,8.61-5.87,16.77-10.95,24.38,17.06-10.8,37.58-21.67,53.22-21.67,5.88,0,11.05,1.44,15.38,4.29,9.79,6.44,15.17,15.77,15.15,26.27-.04,17.9-15.96,33.27-24.89,39.3,13.84,.21,20.02,7.98,22.48,12.63,4.97,9.41,5.37,19.54,1.15,29.29-6.5,15.01-22.93,25.71-36.66,31.89,5.45,1.09,10.12,2.95,13.98,5.56,10.32,7,13.66,20.33,7.62,30.36-3.69,6.12-9.45,8.7-12.22,9.94-25.87,11.57-52.53,17.11-79.83,21.93-4.59,3.68-13.41,10.15-26.34,16.99-11.41,6.03-49.99,19.25-90.32,19.25Z"/><path class="c" d="M733.28,635.62c8.17,0,13.29,7.02,14,18.87,2.26,37.78-25.33,57.08-22.4,62.62,1.6,3.03,4.3,4.78,8.22,4.78,3.25,0,7.33-1.19,12.35-3.84,22.09-11.68,34.69-45.81,53.55-62.37,10.11-8.88,25.7-17.18,36.82-17.18,9.94,0,16.32,6.63,12.08,25.39-8.49,37.55-67.56,68.78-69.3,74.42-1.74,5.64-3.15,5.21,.7,10.26,1.72,2.25,4.62,3.64,8.32,3.64,4.61,0,10.46-2.15,16.81-7.48,10.36-8.68,73.64-59.83,100.36-59.83,2.82,0,5.23,.57,7.14,1.82,19.91,13.09-.62,34.57-10.28,40.86-9.66,6.29-86.72,41.12-90.84,48.02-4.08,6.84-9.3,21.24,1.97,21.24,.1,0,.2,0,.31,0,9.88-.22,71.32-42.08,96.78-42.08,4.63,0,8.06,1.38,9.79,4.65,11.22,21.23-21.52,39.72-40.08,44.81-18.57,5.09-66.01,13.64-63.84,26.66,.75,4.49,5.43,6.07,11.85,6.07,12.2,0,30.67-5.66,40.42-7.72,4.52-.95,10.67-1.79,16.81-1.8,6.82,0,13.61,1.04,18.16,4.12,3.25,2.21,5.23,6.83,3.2,10.2-1.19,1.97-3.4,3.05-5.5,3.99-25.59,11.45-52.82,16.76-80.29,21.55,0,0-9.24,8.53-26.77,17.8-9.34,4.94-45.81,17.51-83.31,17.51-32.91,0-66.62-9.68-83.52-42.69-16.73-32.67-11.13-68.85,6.76-99.82,13.37-23.14,29.09-44.8,44.81-66.38,12.48-17.14,24.7-43.34,43.39-54.35,4.3-2.54,8.19-3.73,11.55-3.73m0-30c-8.9,0-17.91,2.65-26.78,7.88-19.86,11.7-32.83,32.19-43.26,48.66-3.26,5.15-6.34,10.01-9.15,13.88-15.08,20.71-32.18,44.18-46.54,69.04-11.55,19.99-18.37,40.7-20.26,61.56-2.15,23.66,2.15,46.18,12.78,66.93,11.01,21.52,27.91,37.48,50.22,47.45,17.19,7.68,37.38,11.57,60,11.57,43.54,0,84.37-14.14,97.33-20.99,11.38-6.02,19.98-11.9,25.58-16.12,27-4.85,53.48-10.63,79.71-22.36,3.5-1.57,12.82-5.73,18.94-15.88,5.56-9.21,6.66-20.48,3.02-30.91-1.68-4.82-4.32-9.29-7.69-13.11,9.65-7.59,16.58-16.17,20.65-25.58,6-13.87,5.42-28.88-1.66-42.26-2.25-4.25-5.16-7.91-8.61-10.92,8.33-10.8,12.74-22.53,12.76-33.96,.04-15.51-7.95-29.66-21.91-38.84-6.82-4.48-14.76-6.75-23.62-6.75-7.71,0-16.22,1.77-25.95,5.5,1.51-14.64-1.56-26.84-9.18-36.38-8.01-10.02-20.03-15.54-33.85-15.54-9.87,0-20.61,2.79-31.92,8.29-8.78,4.27-17.55,10.08-24.7,16.35-1.61,1.41-3.15,2.87-4.64,4.38-1.69-5.47-4.15-10.39-7.35-14.72-8.06-10.91-20.43-17.17-33.93-17.17h0Z"/></g><g><path class="b" d="M289.71,917.59c-40.33,0-78.91-13.22-90.32-19.25-12.93-6.83-21.76-13.3-26.34-16.99-27.3-4.82-53.97-10.36-79.83-21.93-2.77-1.24-8.53-3.81-12.22-9.93-6.04-10.02-2.7-23.36,7.62-30.36,3.85-2.61,8.53-4.47,13.98-5.56-13.73-6.18-30.16-16.88-36.66-31.89-4.22-9.75-3.82-19.88,1.15-29.29,2.46-4.66,8.64-12.42,22.48-12.63-8.93-6.03-24.85-21.4-24.89-39.3-.02-10.5,5.35-19.83,15.15-26.27,4.33-2.84,9.5-4.29,15.38-4.29,15.64,0,36.15,10.88,53.22,21.67-5.08-7.61-9.01-15.77-10.95-24.38-3.28-14.52-1.74-25.89,4.58-33.8,5.1-6.38,12.96-9.9,22.13-9.9,15.82,0,34.86,10.5,46.72,20.91,9.44,8.29,17.01,19.5,24.34,30.35,1.98,2.93,3.98,5.89,6,8.76-2.61-8.6-4.16-18.56-3.48-29.92,.53-8.86,2.92-16.22,7.11-21.89,5.28-7.14,13.04-11.08,21.87-11.08,6.18,0,12.63,1.95,19.17,5.8,16.74,9.86,28.14,27.87,38.2,43.76,3.39,5.36,6.6,10.42,9.7,14.68,15.59,21.41,31.71,43.55,45.67,67.71,22.41,38.8,24.94,79.34,7.12,114.16-17.03,33.27-50.52,50.86-96.86,50.86h-.01Z"/><path class="c" d="M266.72,635.62c3.37,0,7.25,1.19,11.55,3.73,18.69,11.01,30.91,37.21,43.39,54.35,15.72,21.58,31.44,43.24,44.81,66.38,17.89,30.97,23.48,67.14,6.76,99.82-16.9,33.01-50.61,42.69-83.52,42.69-37.5,0-73.97-12.57-83.31-17.51-17.54-9.27-26.77-17.8-26.77-17.8-27.46-4.79-54.69-10.1-80.29-21.55-2.1-.94-4.31-2.02-5.5-3.99-2.03-3.37-.06-7.99,3.2-10.2,4.54-3.08,11.34-4.12,18.16-4.12,6.14,0,12.28,.84,16.81,1.8,9.75,2.06,28.22,7.72,40.42,7.72,6.42,0,11.11-1.57,11.85-6.07,2.16-13.03-45.28-21.57-63.84-26.66-18.57-5.09-51.3-23.58-40.08-44.81,1.73-3.26,5.16-4.65,9.79-4.65,25.46,0,86.9,41.86,96.78,42.08,.1,0,.21,0,.31,0,11.26,0,6.05-14.4,1.97-21.24-4.12-6.9-81.18-41.73-90.84-48.02-9.66-6.29-30.19-27.77-10.28-40.86,1.9-1.25,4.31-1.82,7.14-1.82,26.73,0,90,51.15,100.36,59.83,6.35,5.32,12.21,7.48,16.81,7.48,3.7,0,6.6-1.39,8.32-3.64,3.85-5.05,2.44-4.61,.7-10.26-1.74-5.64-60.81-36.87-69.3-74.42-4.24-18.77,2.14-25.39,12.08-25.39,11.13,0,26.71,8.31,36.82,17.18,18.86,16.56,31.46,50.69,53.55,62.37,5.01,2.65,9.1,3.84,12.35,3.84,3.93,0,6.62-1.75,8.22-4.78,2.93-5.54-24.66-24.84-22.4-62.62,.71-11.85,5.83-18.87,14-18.87m0-30h0c-13.51,0-25.88,6.26-33.94,17.17-3.2,4.34-5.66,9.26-7.35,14.72-1.49-1.51-3.04-2.97-4.64-4.38-13.57-11.91-35.56-24.64-56.61-24.64-13.82,0-25.84,5.52-33.85,15.53-7.62,9.54-10.69,21.74-9.18,36.38-9.73-3.73-18.24-5.5-25.94-5.51-8.86,0-16.81,2.27-23.62,6.75-13.96,9.18-21.94,23.33-21.9,38.84,.03,11.43,4.44,23.16,12.76,33.96-3.46,3.01-6.37,6.67-8.61,10.92-7.07,13.38-7.66,28.39-1.66,42.26,4.07,9.41,11,17.99,20.65,25.58-3.37,3.82-6.01,8.28-7.69,13.11-3.64,10.43-2.54,21.69,3.02,30.91,6.12,10.15,15.43,14.31,18.94,15.88,26.23,11.73,52.71,17.51,79.71,22.36,5.59,4.22,14.19,10.11,25.58,16.12,12.95,6.85,53.79,20.99,97.33,20.99,22.62,0,42.81-3.89,60-11.57,22.31-9.97,39.21-25.93,50.22-47.45,10.63-20.76,14.92-43.28,12.78-66.93-1.89-20.86-8.71-41.57-20.26-61.56-14.36-24.85-31.45-48.33-46.54-69.04-2.82-3.87-5.89-8.73-9.15-13.88-10.43-16.47-23.4-36.96-43.26-48.66-8.87-5.23-17.88-7.88-26.78-7.88h0Z"/></g></svg>