<?xml version="1.0" encoding="UTF-8"?><svg id="a" xmlns="http://www.w3.org/2000/svg" viewBox="0 0 1000 1000"><defs><style>.b{fill:#e9dcff;}.c{fill:#5a1372;}</style></defs><circle class="b" cx="500" cy="475.69" r="404"/><path class="c" d="M500,898.42c-57.06,0-112.42-11.18-164.55-33.23-50.34-21.29-95.55-51.77-134.36-90.59-38.82-38.82-69.29-84.02-90.59-134.36-22.05-52.13-33.23-107.49-33.23-164.55s11.18-112.42,33.23-164.55c21.29-50.34,51.77-95.55,90.59-134.36,38.82-38.82,84.02-69.29,134.36-90.59,52.13-22.05,107.49-33.23,164.55-33.23s112.42,11.18,164.55,33.23c50.34,21.29,95.55,51.77,134.36,90.59,38.82,38.82,69.29,84.02,90.59,134.36,22.05,52.13,33.23,107.49,33.23,164.55s-11.18,112.42-33.23,164.55c-21.29,50.34-51.77,95.55-90.59,134.36-38.82,38.82-84.02,69.29-134.36,90.59-52.13,22.05-107.49,33.23-164.55,33.23Zm0-808c-52.02,0-102.47,10.18-149.96,30.27-45.88,19.4-87.08,47.19-122.47,82.57-35.39,35.39-63.17,76.59-82.57,122.47-20.08,47.49-30.27,97.94-30.27,149.96s10.18,102.47,30.27,149.96c19.4,45.88,47.19,87.08,82.57,122.47,35.39,35.39,76.59,63.17,122.47,82.57,47.49,20.08,97.94,30.27,149.96,30.27s102.47-10.18,149.96-30.27c45.88-19.4,87.08-47.19,122.47-82.57s63.17-76.59,82.57-122.47c20.08-47.49,30.27-97.94,30.27-149.96s-10.18-102.47-30.27-149.96c-19.4-45.88-47.19-87.08-82.57-122.47s-76.59-63.17-122.47-82.57c-47.49-20.08-97.94-30.27-149.96-30.27Z"/><g><g><ellipse class="c" cx="631.51" cy="385.08" rx="31.5" ry="53" transform="translate(-39.59 74.08) rotate(-6.51)"/><path class="c" d="M635.35,447.36c-21.56,0-40.79-24.47-44.58-57.63h0c-3.97-34.82,10.81-64.14,33.65-66.75,11.83-1.35,23.38,4.54,32.53,16.59,8.06,10.61,13.49,25.12,15.29,40.86,1.8,15.74-.22,31.1-5.69,43.25-6.21,13.8-16.13,22.14-27.96,23.49-1.09,.12-2.17,.19-3.25,.19Zm-25.7-59.79c2.91,25.47,16.45,41.89,26.79,40.73,4.83-.55,9.48-5.07,12.78-12.41,4.03-8.95,5.54-21.09,4.14-33.31s-5.6-23.7-11.54-31.52c-4.87-6.4-10.42-9.76-15.25-9.21-10.34,1.18-19.83,20.24-16.93,45.71h0Z"/></g><g><ellipse class="c" cx="372.49" cy="399.3" rx="31.5" ry="53" transform="translate(-42.87 44.81) rotate(-6.51)"/><path class="c" d="M376.25,461.58c-10.65,0-20.91-5.86-29.21-16.78-8.06-10.61-13.5-25.12-15.29-40.86h0c-3.97-34.82,10.81-64.14,33.65-66.75,22.84-2.61,43.85,22.63,47.82,57.45,1.8,15.74-.23,31.1-5.69,43.25-6.21,13.8-16.13,22.14-27.96,23.49-1.11,.13-2.22,.19-3.32,.19Zm-25.62-59.79c1.39,12.21,5.6,23.7,11.54,31.52,4.87,6.4,10.42,9.75,15.25,9.21,4.83-.55,9.48-5.07,12.78-12.41,4.03-8.95,5.54-21.09,4.14-33.31-2.91-25.47-16.45-41.91-26.79-40.73-10.34,1.18-19.83,20.25-16.93,45.71h0Z"/></g></g><g><path class="c" d="M741.87,286.48c8.83-11.61-5.56-46.75-55.03-54.38-64.45-9.94-117.17,46.53-117.17,46.53,0,0,96.08-32.52,123.66-23.35,26.17,8.7,39.71,42.8,48.54,31.2Z"/><path class="c" d="M737.73,296.86c-7.22,0-12.9-5.98-20.04-13.5-7.15-7.52-16.04-16.89-26.89-20.49-5.6-1.86-21.83-3.25-67.59,8.38-26.87,6.83-50.75,14.88-50.99,14.96-3.47,1.17-7.3-.16-9.29-3.24s-1.63-7.12,.88-9.8c2.27-2.43,56.39-59.45,124.24-48.98,44.58,6.88,58.34,32.92,61.5,40.73,4.07,10.09,3.58,19.96-1.32,26.4h0c-3.27,4.3-7.13,5.37-9.78,5.52-.24,.01-.48,.02-.72,.02Zm-2.22-15.22s-.04,.04-.06,.06l6.42,4.78-6.36-4.84Zm-55.07-35.9c6.06,0,11.32,.59,15.41,1.95,14.65,4.87,25.51,16.31,33.44,24.66,2.17,2.29,4.9,5.16,6.96,6.96,.21-1.93-.08-4.8-1.53-8.39-4.85-12.03-20.3-26.47-49.1-30.91-29.84-4.6-57.37,6.42-77.44,18.59,23.61-6.42,52.25-12.86,72.26-12.86Z"/></g><g><path class="c" d="M257.55,297c-8.83-11.61,20.78-30.15,70.47-36.16,68.97-8.34,116.81,46.53,116.81,46.53,0,0-79.4-24.28-108.47-24.28-36.16,0-69.98,25.51-78.81,13.91Z"/><path class="c" d="M444.83,315.37c-.78,0-1.57-.11-2.34-.35-.78-.24-78.59-23.93-106.13-23.93-16.05,0-32.34,5.71-45.43,10.3-16.98,5.96-31.64,11.1-39.75,.45h0c-3.44-4.53-4.12-10.2-1.85-15.56,6.39-15.12,37.62-28.53,77.72-33.38,30.02-3.63,60.94,3.72,89.43,21.27,21.37,13.16,33.86,27.35,34.38,27.95,2.35,2.69,2.62,6.61,.68,9.61-1.5,2.32-4.05,3.65-6.71,3.65Zm-180.95-23.26l-6.33,4.89,6.36-4.84s-.01-.02-.02-.04l-.02-.02Zm.36-.06c3.64,.49,14.23-3.24,21.4-5.75,14.23-4.99,31.95-11.21,50.72-11.21,16.79,0,48.62,7.44,73.88,14.15-19.55-12.47-47.92-24.5-81.27-20.46-41.49,5.02-62.18,18.02-64.74,23.26Z"/></g><path class="c" d="M384.51,648.92c-7.1,0-13.88-4.05-17.04-10.92-4.31-9.4-.19-20.52,9.21-24.84,37.13-17.03,86.01-28.72,145.3-34.74,43.71-4.44,76.43-3.99,77.8-3.97,10.34,.16,18.6,8.67,18.44,19.02-.16,10.25-8.51,18.44-18.72,18.44-.1,0-.2,0-.29,0-1.57-.02-126.94-1.39-206.9,35.3-2.53,1.16-5.19,1.71-7.8,1.71Z"/><g><path class="b" d="M720.99,941.25c-39.07,0-84.5-3.74-88.97-32.88-1.23-8,.39-15.56,3-21.99-12.57-4.36-20.84-13.82-22.64-26.77-1.71-12.24,2.08-21.74,7.77-28.74-9.55-7.62-12.51-16.41-13.19-22.92-1-9.57,3.26-17.78,9.27-24.43-39.3-6.92-95.15-17.18-104.5-21.13-5.92-2.5-12.43-7.58-17.42-13.58-6.74-8.1-9.61-16.42-8.31-24.05,.89-5.23,5.27-17.55,26.65-18.91,3.41-.22,8.06-.32,14.21-.32,21.67,0,57.95,1.31,93.03,2.58,31.12,1.13,60.51,2.19,75.92,2.19h0c2.78,0,5.01-.04,6.63-.11,1.53-.07,3.09-.13,4.67-.19,14.01-.55,35.18-1.38,41.23-7.97,.54-.59,1.81-1.97,1.62-5.91-1.29-27.29-3.51-54.48-5.53-67.67-2.69-17.54,1.54-34.32,11.6-46.05,7.66-8.92,18.04-14.04,28.49-14.04,16,0,34.17,11.88,37.19,45.24v.17c.04,.25,2.19,26.49,11.79,51.15,11.02,28.32,35.28,104.54,35.59,146.54,.2,26.99-8.22,56.23-22.53,78.21-20.13,30.93-51.31,48.39-90.18,50.51-12.81,.7-24.73,1.05-35.41,1.05Z"/><path class="c" d="M784.53,581.32c11.29,0,22.17,9.88,24.3,33.47,0,0,2.15,27.96,12.61,54.85,10.46,26.89,34.42,102.42,34.71,141.94,.3,39.53-21.3,111.4-100.46,115.7-12.84,.7-24.38,1.03-34.7,1.03-53.28,0-74.18-8.85-76.18-21.9-2.39-15.57,12.12-30.54,12.12-30.54,0,0-1.9,.25-4.78,.25-8.3,0-24.7-2.09-26.96-18.3-3.04-21.83,19.94-28.98,19.94-28.98,0,0-23.55-5.38-25.3-22.24-1.76-16.86,29.76-30.43,29.76-30.43,0,0-120.81-20.62-132.82-25.7-12.01-5.08-32.21-29.87-3.31-31.7,3.24-.2,7.81-.29,13.4-.29,40.73,0,135.93,4.77,168.94,4.77,2.91,0,5.33-.04,7.2-.12,25.91-1.12,61.15-.84,59.89-27.61-1.26-26.77-3.51-54.94-5.67-69.03-4.13-26.92,11.96-45.17,27.3-45.18m0-25.89h0c-14.23,0-28.2,6.77-38.31,18.55-12.52,14.59-17.83,35.16-14.56,56.43,1.86,12.12,3.99,37.85,5.26,63.37-1.59,.51-4.05,1.13-7.75,1.67-6.81,1-14.8,1.31-22.53,1.61-1.6,.06-3.18,.12-4.73,.19-1.43,.06-3.48,.09-6.08,.09-15.17,0-44.46-1.06-75.46-2.18-35.19-1.27-71.58-2.59-93.48-2.59-6.43,0-11.34,.11-15.03,.35-31.47,1.99-37.49,23.2-38.59,29.65-1.95,11.47,1.9,23.4,11.12,34.5,6.34,7.63,14.48,13.91,22.33,17.22,3.79,1.6,10.13,4.28,76.34,16.37,4.29,.78,8.56,1.56,12.74,2.31-1.93,6.06-2.18,11.63-1.69,16.29,.9,8.62,4.24,16.58,9.72,23.44-4.14,8.73-5.66,18.55-4.25,28.67,1.89,13.57,8.91,24.66,19.98,31.83-.99,5.34-1.24,11.09-.31,17.11,1.45,9.45,6.25,17.94,13.88,24.56,5.91,5.12,13.35,9.06,22.75,12.03,15.43,4.89,36.74,7.27,65.14,7.27,10.91,0,23.06-.36,36.11-1.07,43.16-2.35,77.85-21.84,100.32-56.37,8.58-13.19,15.09-28.16,19.35-44.5,3.55-13.63,5.37-27.76,5.27-40.86-.33-43.77-25.18-122.12-36.47-151.13-8.82-22.68-10.91-47.21-10.93-47.45v-.17l-.03-.17c-1.48-16.29-6.32-29.6-14.4-39.55-9.14-11.26-21.81-17.46-35.68-17.46h0Z"/></g></svg>