<?xml version="1.0" encoding="UTF-8"?><svg id="a" xmlns="http://www.w3.org/2000/svg" xmlns:xlink="http://www.w3.org/1999/xlink" viewBox="0 0 1000 1000"><defs><style>.c{fill:none;}.d{fill:#fa405c;}.e{fill:#006ba2;}.f{fill:#e9dcff;}.g{fill:#9280ab;}.h{fill:#5a1372;}.i{clip-path:url(#b);}</style><clipPath id="b"><path class="c" d="M124.51,61.5l51.81,357.91c.95,6.56,8.26,9.79,13.43,5.93l324.44-242.45c5.72-4.28,4.15-13.54-2.65-15.63L135.28,51.8c-5.96-1.83-11.69,3.34-10.77,9.7Z"/></clipPath></defs><circle class="f" cx="542.82" cy="558.98" r="389.59"/><g><path class="h" d="M542.82,967.31c-55.12,0-108.59-10.8-158.94-32.1-48.62-20.57-92.29-50.01-129.78-87.5-37.49-37.49-66.93-81.16-87.5-129.79-21.3-50.35-32.1-103.83-32.1-158.94s10.8-108.59,32.1-158.94c20.57-48.63,50.01-92.29,87.5-129.79,37.49-37.49,81.16-66.93,129.78-87.5,50.35-21.3,103.83-32.1,158.94-32.1s108.59,10.8,158.94,32.1c48.62,20.57,92.29,50.01,129.78,87.5,37.49,37.49,66.93,81.16,87.5,129.79,21.3,50.35,32.1,103.83,32.1,158.94s-10.8,108.59-32.1,158.94c-20.57,48.63-50.01,92.29-87.5,129.79-37.49,37.49-81.16,66.93-129.78,87.5-50.35,21.3-103.83,32.1-158.94,32.1Zm0-779.19c-99.06,0-192.19,38.58-262.24,108.62s-108.62,163.18-108.62,262.24,38.58,192.19,108.62,262.24,163.18,108.62,262.24,108.62,192.19-38.58,262.24-108.62,108.62-163.18,108.62-262.24-38.58-192.19-108.62-262.24-163.18-108.62-262.24-108.62Z"/><path class="h" d="M624.78,505.22c-3.17,0-6.38-.8-9.32-2.49-8.97-5.15-12.06-16.62-6.92-25.59,2.65-4.61,26.8-44.89,63.02-44.89,.18,0,.36,0,.55,0,22.51,.25,42.14,15.48,58.34,45.25,4.94,9.09,1.58,20.46-7.5,25.41-9.09,4.94-20.46,1.59-25.41-7.5-8.82-16.22-18.23-25.58-25.82-25.69-.05,0-.11,0-.16,0-11.48,0-25.77,17.9-30.55,26.11-3.46,6.03-9.75,9.4-16.23,9.4Z"/><path class="h" d="M481.6,505.19c-6.64,0-13.07-3.54-16.47-9.78-8.84-16.24-18.26-25.61-25.85-25.69-11.01-.16-25.4,16.91-30.65,26.06-5.15,8.97-16.6,12.08-25.57,6.93-8.97-5.15-12.08-16.59-6.93-25.57,2.65-4.61,26.8-44.89,63.02-44.89,.18,0,.36,0,.55,0,22.51,.25,42.14,15.48,58.34,45.25,4.94,9.09,1.58,20.46-7.5,25.41-2.84,1.55-5.91,2.28-8.94,2.28Z"/><g class="i"><rect class="h" x="-292.97" y="18.39" width="666.13" height="72.8" transform="translate(-25.05 35.67) rotate(-37.45)"/><rect class="d" x="-248.7" y="76.18" width="666.13" height="72.8" transform="translate(-51.07 74.51) rotate(-37.45)"/><rect class="h" x="-204.43" y="133.98" width="666.13" height="72.8" transform="translate(-77.09 113.34) rotate(-37.45)"/><rect class="d" x="-160.16" y="191.77" width="666.13" height="72.8" transform="translate(-103.11 152.18) rotate(-37.45)"/><rect class="h" x="-115.89" y="249.56" width="666.13" height="72.8" transform="translate(-129.13 191.01) rotate(-37.45)"/><rect class="d" x="-71.62" y="307.35" width="666.13" height="72.8" transform="translate(-155.15 229.85) rotate(-37.45)"/></g><path class="h" d="M184.85,445.08c-3.4,0-6.84-.67-10.13-2.03-8.82-3.65-14.9-11.52-16.28-21.05L106.63,64.09h0c-1.34-9.24,2.06-18.35,9.09-24.37,6.9-5.91,16.19-7.85,24.86-5.19l376.25,115.46c9.67,2.97,16.77,11.07,18.52,21.14,1.75,10.1-2.21,20.15-10.35,26.23L200.56,439.81c-4.66,3.48-10.15,5.27-15.71,5.27ZM144.5,73.52l47.43,327.64L488.93,179.22,144.5,73.52Z"/><g><g><path class="d" d="M552.49,755.51c-14.65,0-26.58-11.92-26.58-26.57s11.92-26.58,26.58-26.58h253.63c-13.2-2.89-24.98-9.3-34.16-18.75-16.35-16.82-24.64-36.99-24.64-59.98s14.53-50.42,35.34-66.23c14.48-11,33.59-17.83,49.86-17.83,26.31,0,52.65,8.38,72.28,23,24.48,18.23,37.44,44.76,37.47,76.74,.04,32.92-10.73,61.12-31.14,81.56-20.37,20.4-59.67,34.64-95.57,34.64h-263.07Zm280.06-161.37c9.08,0,26.28,1.82,39.42,13.99,9.44,8.75,14.44,20.6,14.44,34.29,0,16.07-3.9,29.34-11.61,39.56,9.4-10.2,14.34-24.88,14.32-42.61-.01-12.38-8.06-29.46-26.01-39.72-7.63-4.36-16.52-6.77-25.02-6.77-4.18,0-8.23,.56-12.07,1.67,.72-.12,1.45-.21,2.18-.26,.92-.07,2.42-.15,4.35-.15Zm-22.22,9.21c-5.11,4.72-8.72,10.89-8.72,18.01,0,14.31,5.5,29.6,20.95,29.6,8.11,0,9.69-2.01,10.37-3.92-.11,0-.22,.01-.33,.02-1.01,.05-2.05,.1-3.15,.1-1.59,0-2.98-.12-4.25-.36-11.99-2.28-21.25-13.19-21.55-25.4-.16-6.8,2.39-13.19,6.68-18.06Z"/><path class="h" d="M832.52,549.07c44.01,0,100.17,26.23,100.25,90.24,.04,30.35-9.77,56.22-28.36,74.83-19.33,19.35-56.76,31.85-88.85,31.85h-263.07c-9.43,0-17.07-7.64-17.07-17.08s7.64-17.07,17.07-17.07h263.07c22.84,0,51.91-9.04,64.69-21.84,12.04-12.06,18.4-29.57,18.37-50.66-.03-21.64-16.23-39.63-30.8-47.96-8.99-5.14-19.38-8.02-29.74-8.02-5.51,0-11,.81-16.28,2.53-15.34,4.99-29.7,18.37-29.7,35.44,0,23.42,12.05,39.1,30.45,39.1,8.95,0,16.99-2.13,19.74-11.54,.66-2.26,1.04-4.7,.36-6.95-1.16-3.83-4.31-4.49-7.74-4.49-1.82,0-3.73,.19-5.47,.19-.88,0-1.72-.05-2.48-.19-7.57-1.44-13.64-8.59-13.82-16.29-.21-8.77,7.07-16.74,15.78-17.42,.7-.05,1.96-.13,3.62-.13,7.2,0,22.06,1.36,32.97,11.46,7.45,6.9,11.39,16.35,11.39,27.32,0,33.66-19.3,52.19-54.35,52.19-17.19,0-32.74-6.26-43.79-17.62-8.43-8.67-21.95-25.82-21.95-53.35,0-21.6,14.19-45.44,31.59-58.66,12.91-9.81,29.82-15.9,44.11-15.9m0-19c-18.52,0-39.31,7.39-55.6,19.77-23.38,17.76-39.09,47.42-39.09,73.79,0,15.08,3.31,29.31,9.84,42.29,4.44,8.82,10.16,16.77,17.49,24.31,.87,.9,1.77,1.77,2.68,2.62h-215.34c-19.89,0-36.07,16.18-36.07,36.07s16.18,36.08,36.07,36.08h263.07c17.91,0,37.62-3.46,55.51-9.74,19.28-6.77,35.46-16.35,46.78-27.68,22.23-22.26,33.96-52.78,33.92-88.28-.02-18.26-3.94-35.04-11.65-49.86-7-13.45-16.97-25.05-29.65-34.49-21.23-15.81-49.64-24.88-77.95-24.88h0Z"/></g><path class="e" d="M616.75,738.43c-.61-8.85-1.06-17.71-1.43-26.58h-62.83c-9.43,0-17.07,7.64-17.07,17.07s7.64,17.07,17.07,17.07h64.83c-.2-2.52-.39-5.05-.57-7.57Z"/></g><rect class="h" x="615.21" y="709.42" width="20" height="45.15" transform="translate(-6.4 5.52) rotate(-.5)"/><path class="h" d="M508.98,791.88c-3.79,0-7.61-1.15-10.92-3.53-8.4-6.04-10.31-17.75-4.27-26.15,30.11-41.86,18.47-74.68,17.96-76.06l.09,.23,34.77-13.96c.85,2.11,20.26,52.36-22.4,111.67-3.66,5.09-9.4,7.79-15.22,7.79Z"/><g><path class="e" d="M731.77,160.45c-4.95,0-9.15-3.62-9.89-8.51l-7.98-52.88c-.43-2.88,.41-5.81,2.31-8.01,1.9-2.21,4.67-3.48,7.58-3.48h61.64c3.06,0,5.95,1.4,7.85,3.8,1.9,2.4,2.59,5.54,1.88,8.51l-12.56,52.88c-1.07,4.51-5.1,7.69-9.73,7.69h-41.1Z"/><path class="h" d="M785.43,97.57h0m0,0l-12.56,52.88h-41.1l-7.98-52.88h61.64m0-20h-61.64c-5.82,0-11.36,2.54-15.16,6.96-3.8,4.42-5.48,10.27-4.62,16.03l7.98,52.88c1.48,9.78,9.88,17.02,19.78,17.02h41.1c9.27,0,17.32-6.36,19.46-15.38l12.44-52.36c.44-1.64,.67-3.37,.67-5.14,0-11.04-8.94-19.99-19.98-20h-.02Zm0,40h0Z"/></g><g><path class="d" d="M203.77,582.45c-4.95,0-9.15-3.62-9.89-8.51l-7.98-52.88c-.43-2.88,.41-5.81,2.31-8.01,1.9-2.21,4.67-3.48,7.58-3.48h61.64c3.06,0,5.95,1.4,7.85,3.8,1.9,2.4,2.59,5.54,1.88,8.51l-12.56,52.88c-1.07,4.51-5.1,7.69-9.73,7.69h-41.1Z"/><path class="h" d="M257.43,519.57h0m0,0l-12.56,52.88h-41.1l-7.98-52.88h61.64m0-20h-61.64c-5.82,0-11.36,2.54-15.16,6.95-3.8,4.42-5.48,10.27-4.62,16.03l7.98,52.88c1.48,9.78,9.88,17.02,19.78,17.02h41.1c9.27,0,17.32-6.36,19.46-15.38l12.44-52.36c.44-1.64,.67-3.37,.67-5.14,0-11.04-8.94-19.99-19.98-20h-.02Zm0,40h0Z"/></g><g><path class="d" d="M625.64,275.07c-1.57,0-3.16-.37-4.63-1.14l-26.8-14.01c-4.75-2.48-6.7-8.26-4.42-13.11l18.13-38.67c1.3-2.77,3.79-4.79,6.77-5.49,.75-.18,1.52-.26,2.28-.26,2.24,0,4.44,.75,6.23,2.17l33.11,26.34c2.18,1.73,3.54,4.3,3.75,7.07,.21,2.78-.75,5.51-2.64,7.55l-24.44,26.34c-1.94,2.09-4.62,3.2-7.33,3.2Z"/><path class="h" d="M616.97,212.39l33.11,26.34-24.44,26.34-26.8-14.01,18.13-38.67m0-20c-1.52,0-3.05,.17-4.56,.53-5.96,1.4-10.95,5.44-13.54,10.98l-18.13,38.67c-4.55,9.7-.65,21.26,8.85,26.22l26.8,14.01c2.93,1.53,6.11,2.28,9.26,2.28,5.43,0,10.79-2.21,14.67-6.4l24.44-26.34c3.79-4.08,5.7-9.56,5.28-15.11-.42-5.55-3.14-10.68-7.49-14.14l-33.11-26.34c-3.57-2.84-7.97-4.35-12.45-4.35h0Z"/></g><g><path class="d" d="M102.64,695.07c-1.57,0-3.16-.37-4.63-1.14l-26.8-14.01c-4.75-2.48-6.7-8.26-4.42-13.11l18.13-38.67c1.3-2.77,3.79-4.79,6.77-5.49,.75-.18,1.52-.26,2.28-.26,2.24,0,4.44,.75,6.23,2.17l33.11,26.34c2.18,1.73,3.54,4.3,3.75,7.07,.21,2.78-.75,5.51-2.64,7.55l-24.44,26.34c-1.94,2.09-4.62,3.2-7.33,3.2Z"/><path class="h" d="M93.97,632.39l33.11,26.34-24.44,26.34-26.8-14.01,18.13-38.67m0-20c-1.52,0-3.05,.17-4.56,.53-5.96,1.4-10.95,5.44-13.54,10.98l-18.13,38.67c-4.55,9.7-.65,21.26,8.85,26.22l26.8,14.01c2.93,1.53,6.11,2.28,9.26,2.28,5.43,0,10.79-2.21,14.67-6.4l24.44-26.34c3.79-4.08,5.7-9.56,5.28-15.11-.42-5.55-3.14-10.68-7.49-14.14l-33.11-26.34c-3.57-2.84-7.97-4.35-12.45-4.35h0Z"/></g><g><path class="d" d="M907.75,256.14c-.51,0-1.03-.04-1.55-.12l-59.62-9.32c-3.06-.48-5.73-2.35-7.22-5.07s-1.64-5.97-.4-8.81l11.87-27.24c1.59-3.65,5.19-6,9.17-6h62.58c3.33,0,6.44,1.65,8.29,4.41,1.86,2.76,2.22,6.26,.97,9.35l-14.84,36.56c-1.55,3.82-5.25,6.24-9.26,6.24Z"/><path class="h" d="M922.59,209.57l-14.84,36.56-59.62-9.32,11.87-27.24h62.58m0-20h-62.58c-7.96,0-15.16,4.72-18.33,12.01l-11.87,27.24c-2.48,5.68-2.18,12.19,.8,17.62,2.98,5.43,8.32,9.17,14.44,10.13l59.62,9.32c1.04,.16,2.08,.24,3.1,.24,8.03,0,15.43-4.85,18.52-12.48l14.84-36.56c2.5-6.17,1.77-13.17-1.94-18.69-3.72-5.52-9.94-8.83-16.59-8.83h0Zm0,40h0Z"/></g><g><path class="g" d="M724.66,353.5c-2.65,0-5.24-1.06-7.14-3-2.54-2.59-3.47-6.34-2.45-9.82l18.42-62.75c1.16-3.96,4.64-6.8,8.76-7.15l45.37-3.8c.28-.02,.56-.04,.84-.04,3.07,0,5.99,1.41,7.89,3.86,2.08,2.67,2.66,6.2,1.56,9.4l-18.71,54.28c-1.08,3.13-3.63,5.52-6.83,6.39l-45.08,12.27c-.87,.24-1.75,.35-2.62,.35Z"/><path class="h" d="M788.44,276.95l-18.71,54.28-45.08,12.27,18.42-62.75,45.36-3.8m0-20c-.56,0-1.11,.02-1.67,.07l-45.36,3.8c-8.23,.69-15.19,6.37-17.52,14.3l-18.42,62.75c-2.04,6.95-.16,14.46,4.91,19.64,3.81,3.89,8.98,6,14.28,6,1.75,0,3.52-.23,5.25-.7l45.08-12.27c6.39-1.74,11.5-6.52,13.66-12.78l18.71-54.28c2.2-6.39,1.03-13.46-3.12-18.8-3.81-4.89-9.64-7.72-15.78-7.72h0Zm0,40h0Z"/></g><g><path class="g" d="M242.75,801.14c-.51,0-1.03-.04-1.55-.12l-59.62-9.32c-3.06-.48-5.73-2.35-7.22-5.07s-1.64-5.97-.4-8.81l11.87-27.24c1.59-3.65,5.19-6,9.17-6h62.58c3.33,0,6.44,1.65,8.29,4.41,1.86,2.76,2.22,6.26,.97,9.35l-14.84,36.56c-1.55,3.82-5.25,6.24-9.26,6.24Z"/><path class="h" d="M257.59,754.57l-14.84,36.56-59.62-9.32,11.87-27.24h62.58m0-20h-62.58c-7.96,0-15.16,4.72-18.33,12.01l-11.87,27.24c-2.48,5.68-2.18,12.19,.8,17.62,2.98,5.43,8.32,9.17,14.44,10.13l59.62,9.32c1.04,.16,2.08,.24,3.1,.24,8.03,0,15.43-4.85,18.52-12.48l14.84-36.56c2.5-6.17,1.77-13.17-1.94-18.69-3.72-5.52-9.94-8.83-16.59-8.83h0Zm0,40h0Z"/></g><g><path class="e" d="M67.41,477.59c-1.67,0-3.34-.42-4.86-1.26-3.17-1.76-5.13-5.09-5.14-8.71l-.18-65.4c-.01-4.13,2.52-7.84,6.37-9.34l42.41-16.54c1.17-.46,2.41-.68,3.63-.68,2.06,0,4.1,.64,5.82,1.87,2.75,1.97,4.32,5.19,4.17,8.57l-2.5,57.36c-.14,3.31-1.92,6.33-4.73,8.07l-39.73,24.58c-1.61,1-3.43,1.5-5.26,1.5Z"/><path class="h" d="M109.64,385.64l-2.5,57.36-39.73,24.58-.18-65.4,42.41-16.54m0-20c-2.45,0-4.92,.45-7.27,1.37l-42.41,16.54c-7.7,3-12.75,10.43-12.73,18.69l.18,65.4c.02,7.24,3.96,13.91,10.29,17.43,3.02,1.68,6.37,2.52,9.71,2.52,3.66,0,7.3-1,10.52-2.99l39.73-24.58c5.63-3.48,9.17-9.52,9.46-16.14l2.5-57.36c.29-6.75-2.84-13.2-8.34-17.13-3.45-2.47-7.53-3.74-11.64-3.74h0Zm0,40h0Z"/></g></g></svg>