<?xml version="1.0" encoding="UTF-8"?><svg id="a" xmlns="http://www.w3.org/2000/svg" viewBox="0 0 1000 1000"><defs><style>.b{fill:#e9dcff;}.c{fill:#5a1372;}</style></defs><circle class="b" cx="500" cy="500" r="404"/><path class="c" d="M500,922.73c-57.06,0-112.42-11.18-164.55-33.23-50.34-21.29-95.55-51.77-134.36-90.59-38.82-38.82-69.29-84.02-90.59-134.36-22.05-52.13-33.23-107.49-33.23-164.55s11.18-112.42,33.23-164.55c21.29-50.34,51.77-95.55,90.59-134.36s84.02-69.29,134.36-90.59c52.13-22.05,107.49-33.23,164.55-33.23s112.42,11.18,164.55,33.23c50.34,21.29,95.55,51.77,134.36,90.59,38.82,38.82,69.29,84.02,90.59,134.36,22.05,52.13,33.23,107.49,33.23,164.55s-11.18,112.42-33.23,164.55c-21.29,50.34-51.77,95.55-90.59,134.36-38.82,38.82-84.02,69.29-134.36,90.59-52.13,22.05-107.49,33.23-164.55,33.23Zm0-808c-52.02,0-102.47,10.18-149.96,30.27-45.88,19.4-87.08,47.19-122.47,82.57-35.39,35.39-63.17,76.59-82.57,122.47-20.08,47.49-30.27,97.94-30.27,149.96s10.18,102.47,30.27,149.96c19.4,45.88,47.19,87.08,82.57,122.47,35.39,35.39,76.59,63.17,122.47,82.57,47.49,20.08,97.94,30.27,149.96,30.27s102.47-10.18,149.96-30.27c45.88-19.4,87.08-47.19,122.47-82.57s63.17-76.59,82.57-122.47c20.08-47.49,30.27-97.94,30.27-149.96s-10.18-102.47-30.27-149.96c-19.4-45.88-47.19-87.08-82.57-122.47-35.39-35.39-76.59-63.17-122.47-82.57-47.49-20.08-97.94-30.27-149.96-30.27Z"/><g><g><ellipse class="c" cx="354.25" cy="494" rx="31.5" ry="53"/><path class="c" d="M354.25,556.5c-22.99,0-41-27.45-41-62.5s18.01-62.5,41-62.5,41,27.45,41,62.5-18.01,62.5-41,62.5Zm0-106c-10.41,0-22,17.86-22,43.5s11.59,43.5,22,43.5,22-17.87,22-43.5-11.59-43.5-22-43.5Z"/></g><g><ellipse class="c" cx="645.75" cy="494" rx="31.5" ry="53"/><path class="c" d="M645.75,556.5c-22.99,0-41-27.45-41-62.5s18.01-62.5,41-62.5,41,27.45,41,62.5-18.01,62.5-41,62.5Zm0-106c-10.41,0-22,17.86-22,43.5s11.59,43.5,22,43.5,22-17.87,22-43.5-11.59-43.5-22-43.5Z"/></g></g><path class="c" d="M587.5,732.23h-175c-10.35,0-18.73-8.39-18.73-18.73s8.39-18.73,18.73-18.73h175c10.35,0,18.73,8.39,18.73,18.73s-8.39,18.73-18.73,18.73Z"/><path class="c" d="M784.49,309.12c-1.2-15.6-40.07-65.62-80.99-65.62-15.52,0-31.13,8.94-44.12,16.51-17.11,9.97-33.22,21.63-48.85,33.76-12.72,9.87-28.23,19.94-37.53,33.23-7,10-5,23,19.37,13.4,16.22-6.39,79.47-46.37,88.93-51.42,23.02-12.29,26.41-4.66,38.13,5.07,4.44,3.69,9.98,8.28,17.52,12.75,23.97,14.2,35.97,18.08,42.82,13.82,2.44-1.52,5.24-4.74,4.72-11.5Z"/><path class="c" d="M410.72,353.4c-10.76,1.6-21.37,4.26-31.72,7.6-31,10-88-17-111-17s-63.68,31.45-57,43c11,19,28-8,54-6,30.97,2.38,54,17,91,17,17.97,0,36.45-6.07,52.46-13.86,7.61-3.7,33.83-16.17,25.11-28.91-3.58-5.23-17.65-2.6-22.86-1.82Z"/></svg>