<?xml version="1.0" encoding="iso-8859-1"?>
<!-- Generator: Adobe Illustrator 19.0.0, SVG Export Plug-In . SVG Version: 6.00 Build 0)  -->
<svg version="1.1" id="Capa_1" xmlns="http://www.w3.org/2000/svg" xmlns:xlink="http://www.w3.org/1999/xlink" x="0px" y="0px"
	 viewBox="0 0 480.127 480.127" style="enable-background:new 0 0 480.127 480.127;" xml:space="preserve">
<g>
	<path style="fill:#EEEAE2;" d="M424.144,321.326c17.019,30.919,5.752,69.78-25.167,86.799c-9.469,5.212-20.105,7.937-30.913,7.921
		h-0.48c-4.32,35.081-36.261,60.018-71.342,55.699c-32.147-3.958-56.268-31.309-56.178-63.699v-368c0-17.68,21.52-32,48-32
		c16.289-0.901,32.101,5.666,42.96,17.84c23.067,3.623,43.265,17.47,54.96,37.68c23.878,16.394,38.128,43.516,38.08,72.48
		c-0.015,5.963-0.604,11.91-1.76,17.76c21.673,11.784,36.676,32.931,40.64,57.28c6.017,11.389,9.149,24.079,9.12,36.96
		C472.061,279.821,453.253,308.584,424.144,321.326L424.144,321.326z"/>
	<path style="fill:#EEEAE2;" d="M55.984,321.326c-17.019,30.919-5.752,69.78,25.167,86.799c9.469,5.212,20.105,7.937,30.913,7.921
		h0.48c4.32,35.081,36.261,60.018,71.342,55.699c32.147-3.958,56.268-31.309,56.178-63.699v-368c0-17.68-21.52-32-48-32
		c-16.289-0.901-32.101,5.666-42.96,17.84c-23.067,3.623-43.265,17.47-54.96,37.68c-23.878,16.394-38.128,43.516-38.08,72.48
		c0.015,5.963,0.604,11.91,1.76,17.76c-21.673,11.784-36.676,32.931-40.64,57.28c-6.017,11.389-9.149,24.079-9.12,36.96
		C8.066,279.821,26.875,308.584,55.984,321.326L55.984,321.326z"/>
</g>
<g>
	<path style="fill:#231F20;" d="M185.72,294.39l-16.32-16.32c4.344-6.524,6.662-14.186,6.664-22.024c0-4.418-3.582-8-8-8
		s-8,3.582-8,8c0,13.255-10.745,24-24,24c-4.418,0-8,3.582-8,8s3.582,8,8,8c7.838-0.002,15.5-2.32,22.024-6.664l16.32,16.32
		c3.178,3.069,8.243,2.982,11.312-0.196C188.714,302.405,188.714,297.49,185.72,294.39L185.72,294.39z"/>
	<path style="fill:#231F20;" d="M264.064,64.046c-4.418,0-8-3.582-8-8c0-17.673,14.327-32,32-32c4.418,0,8,3.582,8,8s-3.582,8-8,8
		c-8.837,0-16,7.163-16,16C272.064,60.464,268.482,64.046,264.064,64.046z"/>
	<path style="fill:#231F20;" d="M368.064,112.046c-4.418,0-8-3.582-8-8c0-13.255-10.745-24-24-24c-4.418,0-8-3.582-8-8s3.582-8,8-8
		c22.08,0.026,39.974,17.92,40,40C376.064,108.464,372.482,112.046,368.064,112.046z"/>
	<path style="fill:#231F20;" d="M304.064,448.046c-22.08-0.026-39.974-17.92-40-40c0-4.418,3.582-8,8-8s8,3.582,8,8
		c0,13.255,10.745,24,24,24c4.418,0,8,3.582,8,8S308.482,448.046,304.064,448.046z"/>
	<path style="fill:#231F20;" d="M309.752,178.35l-19.472-19.472c3.805-7.008,5.794-14.858,5.784-22.832c0-4.418-3.582-8-8-8
		s-8,3.582-8,8c0,17.673-14.327,32-32,32c-4.418,0-8,3.582-8,8s3.582,8,8,8c11.931-0.008,23.428-4.476,32.232-12.528l18.168,18.128
		c3.178,3.07,8.242,2.982,11.312-0.196c2.994-3.1,2.994-8.015,0-11.116L309.752,178.35z"/>
	<path style="fill:#231F20;" d="M320.064,304.046c-13.255,0-24-10.745-24-24c0-4.418-3.582-8-8-8s-8,3.582-8,8
		c0.002,7.838,2.32,15.5,6.664,22.024l-16.32,16.32c-3.178,3.07-3.266,8.134-0.196,11.312c3.07,3.178,8.134,3.266,11.312,0.196
		c0.066-0.064,0.132-0.129,0.196-0.196l16.32-16.32c6.524,4.344,14.186,6.662,22.024,6.664c4.418,0,8-3.582,8-8
		S324.482,304.046,320.064,304.046z"/>
	<path style="fill:#231F20;" d="M397.72,242.39l-20.32-20.32c4.344-6.524,6.662-14.186,6.664-22.024c0-4.418-3.582-8-8-8
		s-8,3.582-8,8c0,13.255-10.745,24-24,24c-4.418,0-8,3.582-8,8s3.582,8,8,8c7.838-0.002,15.5-2.32,22.024-6.664l20.32,20.32
		c3.178,3.07,8.242,2.982,11.312-0.196C400.714,250.405,400.714,245.49,397.72,242.39L397.72,242.39z"/>
	<path style="fill:#231F20;" d="M216.064,64.046c-4.418,0-8-3.582-8-8c0-8.837-7.163-16-16-16c-4.418,0-8-3.582-8-8s3.582-8,8-8
		c17.673,0,32,14.327,32,32C224.064,60.464,220.482,64.046,216.064,64.046z"/>
	<path style="fill:#231F20;" d="M112.064,112.046c-4.418,0-8-3.582-8-8c0.026-22.08,17.92-39.974,40-40c4.418,0,8,3.582,8,8
		s-3.582,8-8,8c-13.255,0-24,10.745-24,24C120.064,108.464,116.482,112.046,112.064,112.046z"/>
	<path style="fill:#231F20;" d="M480.064,240.046c-0.036-35.479-18.166-68.488-48.088-87.552c0-0.16,0.088-0.288,0.088-0.448
		c0-82.4-73.272-152-160-152c-12.64,0.035-24.513,6.064-32,16.248c-7.487-10.184-19.36-16.213-32-16.248c-86.728,0-160,69.6-160,152
		c0,0.16,0.08,0.288,0.088,0.448C18.23,171.557,0.099,204.567,0.064,240.046c-1.226,35.04,15.324,68.33,44,88.504
		c-13.083,37.41,6.638,78.343,44.048,91.426c5.721,2.001,11.672,3.269,17.712,3.774c8.614,38.771,47.026,63.218,85.797,54.604
		c20.952-4.655,38.73-18.425,48.475-37.548c18.002,35.362,61.262,49.435,96.624,31.433c19.133-9.74,32.908-27.527,37.552-48.489
		c39.494-3.301,68.835-37.993,65.534-77.488c-0.505-6.04-1.773-11.991-3.774-17.712C464.72,308.383,481.282,275.092,480.064,240.046
		L480.064,240.046z M176.064,464.046c-30.928,0.012-56.01-25.05-56.022-55.978c-0.008-20.392,11.069-39.176,28.918-49.038
		c3.866-2.141,5.265-7.01,3.124-10.876s-7.01-5.265-10.876-3.124l0,0c-22.707,12.596-36.882,36.434-37.104,62.4
		c-30.588-4.571-51.679-33.074-47.108-63.662c4.081-27.308,27.457-47.565,55.068-47.722c4.418,0,8-3.582,8-8s-3.582-8-8-8
		c-24.842,0.028-47.911,12.869-61.024,33.968c-23.018-17.481-36.071-45.085-34.976-73.968c0.057-48.577,39.423-87.943,88-88
		c4.418,0,8-3.582,8-8s-3.582-8-8-8c-13.563-0.002-26.994,2.664-39.528,7.848c4.816-68.976,69.72-127.848,143.528-127.848
		c13.255,0,24,10.745,24,24v368C232.028,438.959,206.977,464.01,176.064,464.046z M429.088,314.014
		c-13.113-21.099-36.182-33.94-61.024-33.968c-4.418,0-8,3.582-8,8s3.582,8,8,8c30.927,0.21,55.828,25.452,55.618,56.38
		c-0.187,27.546-20.381,50.866-47.618,54.988c-0.223-25.966-14.397-49.804-37.104-62.4c-3.866-2.141-8.735-0.742-10.876,3.124
		s-0.742,8.735,3.124,10.876c27.052,14.991,36.829,49.074,21.838,76.126c-14.991,27.052-49.074,36.829-76.126,21.838
		c-17.791-9.859-28.838-28.591-28.856-48.931v-368c0-13.255,10.745-24,24-24c73.808,0,138.712,58.872,143.528,127.848
		c-12.534-5.184-25.965-7.85-39.528-7.848c-4.418,0-8,3.582-8,8s3.582,8,8,8c48.577,0.057,87.943,39.423,88,88
		C465.158,268.929,452.106,296.533,429.088,314.014L429.088,314.014z"/>
	<path style="fill:#231F20;" d="M208.064,424.046c-4.418,0-8-3.582-8-8c0-13.255-10.745-24-24-24c-4.418,0-8-3.582-8-8s3.582-8,8-8
		c22.08,0.026,39.974,17.92,40,40C216.064,420.464,212.482,424.046,208.064,424.046z"/>
	<path style="fill:#231F20;" d="M200.064,184.046c-17.673,0-32-14.327-32-32c0-4.418-3.582-8-8-8s-8,3.582-8,8
		c-0.01,7.974,1.979,15.824,5.784,22.832l-19.472,19.472c-3.313,2.924-3.628,7.979-0.705,11.292
		c2.924,3.313,7.979,3.628,11.292,0.705c0.248-0.219,0.482-0.453,0.701-0.7l18.144-18.144c8.808,8.063,20.315,12.538,32.256,12.544
		c4.418,0,8-3.582,8-8S204.482,184.046,200.064,184.046L200.064,184.046z"/>
	<path style="fill:#231F20;" d="M90.008,232.046c-0.019-6.367,2.51-12.477,7.024-16.968c3.178-3.069,3.266-8.134,0.197-11.312
		s-8.134-3.266-11.312-0.197c-0.067,0.064-0.132,0.13-0.197,0.197c-5.558,5.535-9.352,12.592-10.904,20.28H48.064
		c-4.418,0-8,3.582-8,8s3.582,8,8,8h26.752c1.552,7.689,5.346,14.745,10.904,20.28c3.069,3.178,8.134,3.266,11.312,0.196
		c3.178-3.07,3.266-8.134,0.196-11.312c-0.064-0.067-0.13-0.132-0.196-0.196C92.518,244.523,89.988,238.413,90.008,232.046
		L90.008,232.046z"/>
</g>
<g>
</g>
<g>
</g>
<g>
</g>
<g>
</g>
<g>
</g>
<g>
</g>
<g>
</g>
<g>
</g>
<g>
</g>
<g>
</g>
<g>
</g>
<g>
</g>
<g>
</g>
<g>
</g>
<g>
</g>
</svg>
