<svg id="Capa_1" data-name="Capa 1" xmlns="http://www.w3.org/2000/svg" viewBox="0 0 1920 1080"><defs><style>.cls-1{fill:#90769f;}.cls-2{fill:#7c337c;}.cls-3,.cls-4{fill:none;stroke-miterlimit:10;stroke-width:5px;}.cls-3{stroke:#e9435f;}.cls-4{stroke:#b7a9cc;}</style></defs><rect class="cls-1" x="-22.63" y="-39.63" width="1970.74" height="1147.89"/><path class="cls-2" d="M-59.66,534.31v627.43H1989.26q8.22-248.91,16.45-497.83C1717,520.31,1488.62,502.6,1340,509.81,925.78,529.9,717.87,763.55,339,703.65,156.86,674.86,19.87,591.62-59.66,534.31Z"/><path class="cls-3" d="M-117.26,684.49C-34,733.65,91,790.75,244.8,795.57c242,7.58,420-118.38,497-163.55,211.57-124.14,590.62-184.27,1325.62,110.07"/><path class="cls-4" d="M-187.89,723.69C-104.61,772.86,20.33,830,174.17,834.77c242,7.59,420-118.38,497-163.55C882.75,547.09,1261.8,487,1996.8,781.29"/></svg>