<?xml version="1.0" encoding="utf-8"?>
<!-- Generator: Adobe Illustrator 26.1.0, SVG Export Plug-In . SVG Version: 6.00 Build 0)  -->
<svg version="1.1" id="Capa_1" xmlns="http://www.w3.org/2000/svg" xmlns:xlink="http://www.w3.org/1999/xlink" x="0px" y="0px"
	 viewBox="0 0 1000 1000" style="enable-background:new 0 0 1000 1000;" xml:space="preserve">
<style type="text/css">
	.st0{fill:#E9DCFF;}
	.st1{fill:#5A1372;}
	.st2{fill:#FA405C;}
</style>
<g>
	<g>
		<g>
			<path class="st0" d="M420.59,403.87c36.66-62.09,55.37-133.13,55.37-205.24v-60.99c0-12.62,5.97-24.42,16.03-32.03
				c0.54-0.41,1.09-0.81,1.65-1.22c38.46-27.89,92.88-14.59,114.97,27.48c0.8,1.52,1.73,3.4,2.76,5.56
				c31.85,66.67,39.98,142.22,23.53,214.25l-13.58,59.48c-0.53,3.08,1.84,5.9,4.97,5.9h244.49c28.78,0,54.19,19.69,60.4,47.8
				c1.34,6.09,2.12,12.92,2.12,20.57c0,38.05-21.77,55.64-36.62,63.22c-5.32,2.71-6.37,9.89-2.1,14.07
				c8.62,8.43,18.97,22.98,18.97,44.27c0,27.55-20.82,47.3-31,55.31c-2.69,2.11-3.05,5.97-0.8,8.54
				c5.84,6.67,15.09,20.68,15.09,42.51c0,31.91-28.86,57.73-42.54,62.3c0.13,0.13,18.23,18.36,18.23,54.7
				c0,36.47-36.47,65.33-71.41,65.33c0,0-325.83-11.91-458.42-16.76c-30.78-1.13-55.13-26.4-55.13-57.2V530.74
				C287.56,524,360.28,506,420.59,403.87z"/>
		</g>
	</g>
	<g>
		<path class="st1" d="M801.12,914.18c-0.23,0-0.45,0-0.68-0.01L342.02,897.4c-40.91-1.5-72.96-34.74-72.96-75.68l0-290.97
			c0-12.59,9.66-17.85,20.84-23.95c21.36-11.64,71.39-38.88,114.76-112.33l15.93,9.41l-15.93-9.41
			c34.54-58.5,52.8-126.22,52.8-195.83v-60.99c0-18.23,8.74-35.72,23.38-46.79c0.64-0.48,1.29-0.96,1.95-1.45
			c22.49-16.31,51-22.01,78.21-15.64c27.54,6.44,50.86,24.49,64,49.5c0.89,1.7,1.9,3.73,3.08,6.19
			c33.4,69.92,42.24,150.31,24.87,226.35l-9.76,42.76h227.6c18.11,0,35.9,6.15,50.1,17.32c14.38,11.31,24.45,27.29,28.36,44.99
			c1.7,7.68,2.56,15.94,2.56,24.57c0,39.62-19.44,61.68-36.08,73.31c8.62,11.25,16.33,27.19,16.33,48.24
			c0,28.22-16.34,49.58-28.92,61.83c6.15,10.01,12.21,24.87,12.21,44.53c0,29.03-17.82,53.74-35.24,68
			c5.6,11.3,10.93,27.65,10.93,48.99c0,22.58-10.27,43.98-28.93,60.28C844.95,905.59,822.72,914.18,801.12,914.18z M306.06,540.13
			l0,281.59c0,20.94,16.39,37.94,37.31,38.71l458.06,16.75c29.65-0.17,52.6-25.25,52.6-46.83c0-27.28-12.23-40.98-13.01-41.82
			c-4.41-4.55-6.19-11.04-4.71-17.2c1.49-6.21,6.08-11.21,12.13-13.23c7.44-2.48,29.89-22.3,29.89-44.75
			c0-15.94-6.58-25.84-10.51-30.32c-4.4-5.02-6.57-11.7-5.95-18.33c0.62-6.63,3.98-12.81,9.24-16.94
			c7.2-5.66,23.94-20.97,23.94-40.77c0-11.9-4.51-22.34-13.41-31.04c-6.27-6.13-9.22-14.96-7.89-23.63
			c1.32-8.65,6.75-16.18,14.53-20.14c17.6-8.98,26.53-24.7,26.53-46.74c0-5.95-0.57-11.52-1.68-16.58
			c-4.26-19.29-22.07-33.29-42.34-33.29H626.29c-6.96,0-13.52-3.05-18.01-8.38c-4.48-5.32-6.37-12.31-5.19-19.17
			c0.06-0.32,0.12-0.65,0.19-0.97l13.58-59.48c15.51-67.94,7.64-139.74-22.18-202.16c-0.96-2.01-1.78-3.67-2.45-4.94
			c-8.14-15.5-22.6-26.68-39.67-30.68c-16.74-3.92-34.26-0.43-48.06,9.58c-0.47,0.34-0.92,0.67-1.36,1.01
			c-5.52,4.17-8.69,10.47-8.69,17.27v60.99c0,76.23-20.04,150.45-57.94,214.64c-48.56,82.24-104.88,112.92-128.92,126.01
			C307.1,539.56,306.58,539.85,306.06,540.13z"/>
	</g>
	<g>
		<g>
			<path class="st0" d="M271.82,910.3H107.96c-22.79,0-41.26-18.47-41.26-41.26V512.45c0-22.79,18.47-41.26,41.26-41.26h163.87
				c22.79,0,41.26,18.47,41.26,41.26v356.59C313.08,891.83,294.61,910.3,271.82,910.3z"/>
		</g>
		<g>
			<path class="st1" d="M272.4,928.12H108.53c-32.95,0-59.76-26.81-59.76-59.76V511.77c0-32.95,26.81-59.76,59.76-59.76H272.4
				c32.95,0,59.76,26.81,59.76,59.76v356.59C332.16,901.31,305.35,928.12,272.4,928.12z M108.53,489.01
				c-12.55,0-22.76,10.21-22.76,22.76v356.59c0,12.55,10.21,22.76,22.76,22.76H272.4c12.55,0,22.76-10.21,22.76-22.76V511.77
				c0-12.55-10.21-22.76-22.76-22.76H108.53z"/>
		</g>
	</g>
</g>
</svg>
